<?xml version="1.0" encoding="UTF-8"?>
<!DOCTYPE svg PUBLIC "-//W3C//DTD SVG 1.1//EN" "http://www.w3.org/Graphics/SVG/1.1/DTD/svg11.dtd">
<!-- Creator: CorelDRAW -->
<svg xmlns="http://www.w3.org/2000/svg" xml:space="preserve" width="8in" height="8in" style="shape-rendering:geometricPrecision; text-rendering:geometricPrecision; image-rendering:optimizeQuality; fill-rule:evenodd; clip-rule:evenodd"
viewBox="0 0 8 8"
 xmlns:xlink="http://www.w3.org/1999/xlink">
 <defs>
  <style type="text/css">
   <![CDATA[
    .fil0 {fill:#1C1B17}
    .fil1 {fill:black}
    .fil2 {fill:#FF0009}
    .fil3 {fill:black;fill-rule:nonzero}
   ]]>
  </style>
 </defs>
 <g id="Layer_x0020_1">
  <metadata id="CorelCorpID_0Corel-Layer"/>
  <path class="fil0" d="M4.00209 5.54483c0,0.000822835 0,0.00168898 0,0.00257087 -6.29921e-005,-0.00088189 0.000192913,-0.00174803 0,-0.00257087z"/>
  <path class="fil1" d="M3.25826 5.31888c0.0959921,-0.0994685 0.245898,-0.140449 0.38824,-0.152535 0.118693,-0.0102283 0.319898,0.0343425 0.354748,0.152535 -0.247642,0 -0.495327,0 -0.742988,0zm0.364744 0.981492c0.0537874,-0.119681 -0.00434252,-0.234693 -0.0728819,-0.33889 -0.075437,-0.11448 -0.322217,-0.325756 -0.0211535,-0.337122 0.055874,-0.00215748 0.168374,0.0167638 0.269374,0.0159567 0,0.206626 0,0.413252 0,0.619878 0,0.0431378 0.121618,0.0642362 0.121618,0.0297559 0,-0.221917 0,-0.44389 0,-0.665862 0.0373858,-0.0129134 0.0649882,-0.0347008 0.0748583,-0.070185 0.000645669,-0.00223622 0.000385827,-0.00433858 0.000192913,-0.00649606 0,-0.00088189 0,-0.00174803 0,-0.00257087 -0.00462205,-0.0202165 -0.0425906,-0.0361732 -0.0750512,-0.0385472 0,-0.0415079 0,-0.0829606 0,-0.12439 0.0250236,-1.9685e-005 0.0500276,0 0.0750512,0 0,0.0542835 0,0.108571 0,0.162937 0.000192913,0.000822835 -6.29921e-005,0.00168898 0,0.00257087 0,0.229 0,0.458098 0,0.687098 0,0.0431969 0.121575,0.0642953 0.121575,0.029752 0,-0.286287 0,-0.572559 0,-0.858846 0.00651181,-0.00290551 0.0114567,-0.00675197 0.0117795,-0.0131102 0.000192913,-0.00357087 -0.000299213,-0.00688976 -0.000299213,-0.0104016 0.199933,-1.9685e-005 0.399846,0 0.599783,0 0.00272835,0.0431969 0.00709449,0.0861378 0.00698819,0.129551 -0.000259843,0.0848465 -0.109063,0.0619213 -0.168528,0.0554252 -0.088315,-0.00959843 -0.181016,0.0147402 -0.25637,0.055189 -0.196087,0.105256 -0.0914331,0.360654 0.0141024,0.482083 0.111535,0.128335 0.303067,0.235437 0.485114,0.243819 0.211157,0.00973228 0.352102,-0.147669 0.271051,-0.338811 -0.0155866,-0.0367205 -0.136988,-0.0503819 -0.121594,-0.0139331 0.039126,0.0921457 0.0222283,0.216969 -0.0748346,0.275122 -0.111858,0.0669449 -0.27974,-0.034878 -0.36539,-0.0962874 -0.157024,-0.112638 -0.263441,-0.314276 -0.13428,-0.478843 0.10902,-0.138878 0.289413,-0.00649606 0.419201,-0.0612559 0.0892402,-0.0377205 0.0500669,-0.179248 0.045252,-0.252059 0.294961,-1.9685e-005 0.589961,0 0.884917,0 0,0.0239252 0,0.0477874 0,0.0716535 -0.0171339,-0.0107559 -0.0399409,-0.0188583 -0.0575079,-0.0178386 -0.251787,0.0147402 -0.455594,0.210413 -0.48752,0.43435 -0.0312559,0.218949 0.130043,0.45735 0.325831,0.5735 0.191874,0.11387 0.452327,0.173378 0.680618,0.149571 0.237969,-0.0248858 0.550854,-0.192299 0.463205,-0.451992 -0.0125984,-0.0374685 -0.134728,-0.0530118 -0.121551,-0.013937 0.0734803,0.217657 -0.171516,0.368701 -0.373492,0.40122 -0.210039,0.0337992 -0.464945,-0.0333228 -0.626744,-0.156657 -0.1495,-0.11387 -0.235878,-0.295472 -0.226335,-0.471953 0.0101457,-0.18702 0.204429,-0.388913 0.413287,-0.40122 0.0044685,-0.000275591 0.00668504,-0.00121654 0.0102087,-0.00182677 0,0.0630236 0,0.125965 0,0.188984 0,0.0431378 0.121555,0.0642362 0.121555,0.0296732 0,-0.0164252 0,-0.0327953 0,-0.0492205 0.00262205,-0.00155118 0.00574016,-0.00270866 0.00748031,-0.00492913 0.0715472,-0.0927126 0.264173,-0.0739685 0.336492,0.013248 0.0500512,0.060315 0.0635079,0.163764 0.0593583,0.236244 -0.00612598,0.108709 -0.102118,0.148748 -0.206429,0.167492 -0.0867874,0.0156024 -0.335331,0.016622 -0.381768,-0.0798622 -0.0173268,-0.0361102 -0.138213,-0.0485551 -0.121551,-0.0139331 0.0593346,0.123331 0.256217,0.149433 0.386626,0.160524 0.163906,0.0138543 0.388862,-0.00871654 0.440075,-0.176874 0.0390394,-0.128138 -0.0334331,-0.321047 -0.167303,-0.380807 -0.0931299,-0.0416496 -0.241965,-0.0700472 -0.35298,-0.0366457 0,-0.0562677 0,-0.112516 0,-0.168764 0.27737,-1.9685e-005 0.554724,0 0.832094,0 0.082189,-1.9685e-005 -0.00188976,-0.0630197 -0.0473189,-0.0630197 -0.840996,0 -1.68199,0 -2.52303,0 -0.0460276,-0.122587 -0.222272,-0.181878 -0.355028,-0.203331 -0.219819,-0.0354252 -0.508886,0.0133268 -0.643402,0.189925 -0.00344094,0.0045315 -0.00455906,0.00900787 -0.0041063,0.0134055 -0.461787,0 -0.923575,0 -1.38534,0 0.0482638,-0.125492 0.117618,-0.248217 0.270535,-0.283996 0.200063,-0.0467874 0.449811,0.107925 0.564161,0.243154 0.0240787,0.0284567 0.146661,0.037189 0.113189,-0.00229921 -0.144724,-0.171197 -0.361988,-0.271685 -0.594,-0.30285 -0.267937,-0.0360354 -0.410386,0.134555 -0.486748,0.345992 -0.0943543,0 -0.188756,0 -0.283154,0 -0.0822087,0 0.00184646,0.0630197 0.0472953,0.0630197 0.0877362,-1.9685e-005 0.175406,0 0.263142,0 0,0.181465 0,0.362949 0,0.544413 0,0.0431378 0.121575,0.0642362 0.121575,0.0296929 0,-0.186685 0,-0.373429 0,-0.560114 0,-0.00502362 -0.00195669,-0.00967717 -0.00483858,-0.0139921 0.157756,-1.9685e-005 0.315469,0 0.473224,0 0,0.0235906 0,0.0471811 0,0.0708504 -0.160594,0.0333268 -0.321854,0.134283 -0.385059,0.253965 -0.0990236,0.187409 0.345587,0.187961 0.438673,0.189453 0.127079,0.00209843 0.266799,-0.00514173 0.387512,0.0369961 0.173945,0.0606457 0.0538543,0.28613 -0.0193268,0.372213 -0.133913,0.157657 -0.386972,0.212846 -0.593894,0.21324 -0.110913,0.000216535 -0.212921,-0.0351496 -0.305839,-0.0880236 -0.0627323,-0.0356417 -0.106567,-0.0865512 -0.128346,-0.150319 -0.0237323,-0.0694961 0.0390197,-0.180445 0.131894,-0.157189 0.0728819,0.0182559 0.0890236,-0.0373268 0.0163189,-0.0555197 -0.167626,-0.0419803 -0.315083,0.0660591 -0.259724,0.228331 0.0485433,0.142134 0.249791,0.221169 0.390346,0.260657 0.35722,0.10035 0.847299,-0.0490079 0.965323,-0.390327 0.0929606,-0.268843 -0.258154,-0.319224 -0.466193,-0.329232 -0.0825748,-0.00398425 -0.411307,0.034563 -0.442654,-0.0587402 -0.045122,-0.134283 0.343697,-0.296831 0.449469,-0.272768 0.0730748,0.0165039 0.0898425,-0.0388819 0.0162953,-0.0555039 -0.0233661,-0.00533858 -0.0479606,-0.00798819 -0.0731811,-0.00873228 0,-0.0198031 0,-0.0395472 0,-0.0593504 0.487823,-1.9685e-005 0.975622,0 1.46344,0 0,0.0608425 0,0.12176 0,0.182622 -0.193228,0.0285945 -0.67765,-0.0772283 -0.524969,0.187079 0.0862717,0.149433 0.426098,0.436252 0.15135,0.581902 -0.181728,0.0963425 -0.340063,-0.154835 -0.378354,-0.271827 -0.0346732,-0.105882 0.00629921,-0.201622 0.102272,-0.263953 0.0333425,-0.0216496 -0.0777598,-0.0662598 -0.112913,-0.0434134 -0.202189,0.13124 -0.120713,0.383909 0.0330866,0.522118 0.119598,0.107374 0.458154,0.237457 0.554189,0.0239449z"/>
  <path class="fil2" d="M4.08423 2.93245c0.209201,-0.070122 0.418339,0.0593701 0.594906,0.199051 -0.293736,0 -0.587425,0 -0.881138,0 0.0692913,-0.0855315 0.157457,-0.155909 0.286232,-0.199051zm-2.85972 -0.0716142c0.0509055,-0.0341496 0.113681,-0.0358976 0.173492,-0.037252 0.0414252,0.0155433 0.0700197,0.0242205 0.0882283,0.0273976 0.00956693,0.0195315 0.0165984,0.0400984 0.0225315,0.0611181 0,0.280126 0,0.560311 0,0.840437 -0.164055,-0.187961 -0.344598,-0.382142 -0.403441,-0.614343 -0.0291299,-0.115067 0.0187047,-0.209862 0.119189,-0.277358zm-0.170677 -0.327075l-0.0119094 0c-0.0271969,0.000374016 -0.0555512,0.00345669 -0.0852402,0.0096378 -0.554898,0.11548 0.257398,0.95276 0.365772,1.08732 0.0526063,0.0652953 0.120307,0.123921 0.186307,0.1795 0,0.0856102 0,0.171201 0,0.256811 0,0.00174803 0.00124803,0.0039252 0.00159055,0.00581102 -0.0143819,0.0276535 -0.029626,0.0549134 -0.0447795,0.0821535 -0.0462008,0.0473976 -0.0813504,0.104807 -0.100657,0.175047 -0.0131772,0.0479488 0.175728,0.175933 0.270043,0.246528 0.0172598,0.0157402 0.0344803,0.0314409 0.0517008,0.0472008 0.0346142,-0.0579567 0.0681102,-0.116303 0.10072,-0.175126 0.117724,-0.120484 0.308846,-0.174047 0.504224,-0.198106 0,0.0898504 0,0.179717 0,0.269508 0,0.111028 0.321748,0.213732 0.321748,0.293709 0,-0.194185 0,-0.388366 0,-0.582571 0.0328031,-0.000468504 0.0648386,-0.000724409 0.0948071,-0.00080315 -0.00823622,5.90551e-005 -0.0552953,-0.0519882 -0.0948071,-0.0964252 0,-0.233807 0,-0.467614 0,-0.701425 0.0539173,0 0.107878,0 0.161795,0 0,0.36248 0,0.725035 0,1.08752 0,0.111028 0.321724,0.213732 0.321724,0.293709 0,-0.460394 0,-0.920827 0,-1.38122 0.0347835,0 0.0695039,0 0.104287,0 -0.0138228,0 -0.134063,-0.142937 -0.149606,-0.157146 -0.0308504,-0.028126 -0.122134,-0.136579 -0.172138,-0.136579 -0.0343543,0 -0.0687323,0 -0.103087,0 -0.000255906,-0.00162992 -0.0011811,-0.00337795 -0.0011811,-0.00498819 0,0.00168898 0,0.00329921 0,0.00498819 -0.160807,0 -0.321551,0 -0.482339,0 -0.000279528,-0.00162992 -0.00120472,-0.00337795 -0.00120472,-0.00498819 0,0.00168898 0,0.00329921 0,0.00498819 -0.0821654,0 -0.164335,0 -0.24648,0 0.0138268,0 0.134067,0.142937 0.14961,0.157146 0.0182283,0.016626 0.0574843,0.0609213 0.0968701,0.0946575 0,0.182291 0,0.364579 0,0.54687 -0.143157,0.00196063 -0.308543,0.00992913 -0.461118,0.0425276 0,-0.254965 0,-0.510008 0,-0.76513 0.00275197,0.00345276 0.00558661,0.00690945 0.00623228,0.00940157 -0.00163386,-0.00630315 -0.00434252,-0.0121693 -0.00623228,-0.0183307 0,-0.000413386 0,-0.000866142 0,-0.00127559 0,-0.0071063 -0.00354724,-0.0152913 -0.00851575,-0.0238661 -0.0569488,-0.153752 -0.192776,-0.27952 -0.31639,-0.391819 -0.134217,-0.121921 -0.265508,-0.252299 -0.451748,-0.255224zm4.6755 1.53496c-0.0495315,0.126492 -0.174268,0.248016 -0.315724,0.280067 0.0198858,-0.0763661 0.0648386,-0.15126 0.105063,-0.200697 0.0579803,-0.0712047 0.150079,-0.116031 0.237189,-0.15389 -0.00825591,0.0250236 -0.0168543,0.0499094 -0.0265276,0.0745197zm-0.467827 -0.643488c0.22872,0 0.457421,0 0.686142,0 -0.149799,0.170709 -0.405996,0.214752 -0.610642,0.321831 -0.129012,0.0674764 -0.201354,0.173028 -0.241169,0.301224 -0.0429724,0.138406 0.0458346,0.243425 0.140945,0.337673 0.195185,0.193437 0.398303,0.368563 0.674752,0.170669 0.039878,-0.0286142 0.0707717,-0.0624685 0.096311,-0.0996614 0,0.0210197 0,0.0420394 0,0.0630787 0,0.111028 0.321744,0.213732 0.321744,0.293709 0,-0.224878 0,-0.449756 0,-0.674713 0.107213,-0.0853976 0.221457,-0.160114 0.351028,-0.216913 0.0737598,-0.0323228 0.151327,-0.0458465 0.231516,-0.0458465 0.000818898,0.0374685 -0.0063189,0.0752677 -0.0147913,0.111831 -0.0416614,0.179386 -0.295087,0.222051 -0.427409,0.326169 -0.173598,0.136717 -0.0552717,0.330921 0.0535315,0.458433 0.063315,0.074248 0.140492,0.141055 0.216083,0.204681 0.00962992,0.00802756 0.126236,0.100803 0.0731378,0.0386063 -0.278343,-0.326189 0.0554213,-0.432189 0.300654,-0.59028 0.229906,-0.148161 0.0904449,-0.401969 -0.0526929,-0.543748 -0.133547,-0.132343 -0.280083,-0.292374 -0.48926,-0.301972 -0.0812205,-0.00372835 -0.163024,0.0177835 -0.241795,0.0525984 0,-0.0683583 0,-0.136717 0,-0.205075 0,-0.000744094 -0.000362205,-0.00155118 -0.000405512,-0.00229528 0.284787,0 0.569555,0 0.854323,0 -0.087563,0 -0.20015,-0.293728 -0.32172,-0.293728 -0.640697,0 -1.28135,0 -1.922,0 0.0875827,0 0.20015,0.293728 0.321724,0.293728zm-0.884638 0.643488c-0.0495984,0.126571 -0.174291,0.248016 -0.315791,0.280067 0.0199291,-0.0763661 0.0648386,-0.151339 0.105063,-0.200697 0.058,-0.0712047 0.150122,-0.116031 0.237236,-0.153949 -0.00825591,0.0250039 -0.0169016,0.0499685 -0.0265079,0.0745787zm-1.08036 -0.72011c0,0.390484 0,0.780953 0,1.17144 0,0.111028 0.321744,0.213732 0.321744,0.293709 0,-0.456606 0,-0.913272 0,-1.36986 0.0029685,-0.00629921 0.00595669,-0.0124449 0.0089252,-0.0186654 0.322669,0 0.645272,0 0.967902,0 -0.14976,0.17065 -0.40589,0.214811 -0.610579,0.321831 -0.129012,0.0674764 -0.201374,0.173028 -0.241146,0.301224 -0.0429764,0.138406 0.0457913,0.243425 0.140898,0.337673 0.195209,0.193437 0.398346,0.368563 0.674795,0.170669 0.0399213,-0.0286142 0.0707717,-0.0624685 0.0963346,-0.0996614 0,0.0210197 0,0.0420394 0,0.0630787 0,0.111028 0.321724,0.213732 0.321724,0.293709 0,-0.462083 0,-0.924146 0,-1.38623 0,-0.000744094 -0.000366142,-0.00155118 -0.000409449,-0.00229528 0.0485866,0 0.0972165,0 0.145803,0 -0.0875866,0 -0.200154,-0.293728 -0.321748,-0.293728 -0.0179488,0 -0.0359449,0 -0.0539173,0 -0.151713,-0.13652 -0.323358,-0.258693 -0.488252,-0.368287 -0.151736,-0.100898 -0.309854,-0.149571 -0.496118,-0.124469 -0.251638,0.0337165 -0.36915,0.303717 -0.457315,0.492756 -0.0707283,0 -0.1415,0 -0.212232,0 0.0583268,0 0.127787,0.130102 0.203591,0.217106z"/>
  <path class="fil3" d="M2.20802 2.44044m0.152961 -0.0915236c-0.000307087,0.00813386 -0.00124016,0.0157047 -0.00279528,0.0227126 -0.00155512,0.00700787 -0.00417717,0.0117756 -0.00786614,0.0142992 -0.00368898,0.00252756 -0.0137913,0.00042126 -0.030315,-0.00631496 -0.00879528,-0.00366929 -0.017374,-0.00725984 -0.0257362,-0.0107795 -0.0055748,-0.00234252 -0.0154606,-0.00614173 -0.0296575,-0.0113898 -0.0124724,-0.00466929 -0.0200039,-0.00743701 -0.0225906,-0.00830315 -0.00170472,0.00248819 -0.00444882,0.00579921 -0.00824409,0.00993701 -0.00379134,0.00413386 -0.00695276,0.00707087 -0.00949213,0.00880709 -0.00990945,0.00679134 -0.0209252,0.00849606 -0.0330354,0.00512598 -0.012122,-0.00337008 -0.0219921,-0.010811 -0.0296181,-0.0223228 -0.00541339,-0.00817717 -0.00770079,-0.017063 -0.00685827,-0.0266693 0.00084252,-0.00960236 0.00472047,-0.0167717 0.0116339,-0.0215039 0.0050748,-0.00347244 0.0106417,-0.00530709 0.0167126,-0.00549606 0.00607087,-0.000192913 0.0114764,0.000507874 0.0162205,0.00210236 0.00130709,-0.00662205 0.00241339,-0.0117835 0.00331496,-0.0154764 0.000897638,-0.00370079 0.0014685,-0.00738976 0.00170866,-0.0110787l-0.00133071 -0.0202205c-0.0187953,0.00450787 -0.0362756,0.00568504 -0.052437,0.00353937 -0.0262244,-0.00316929 -0.0456575,-0.0142953 -0.0582953,-0.0333819 -0.0104331,-0.0157441 -0.0144173,-0.0307402 -0.0119528,-0.0449764 0.00246063,-0.0142283 0.00911024,-0.025063 0.0199449,-0.0324764 0.0096811,-0.00662992 0.0219252,-0.00862598 0.0367283,-0.00599606 0.00871654,0.00151575 0.0193898,0.00498819 0.0320394,0.0104213 0.0129843,0.00695669 0.024815,0.0147087 0.0354961,0.0232402 0.0106811,0.00853937 0.0197323,0.0184055 0.0271575,0.0296142 0.00401181,0.00605906 0.00685827,0.0106024 0.0085315,0.0136417 0.00167717,0.00303543 0.00412205,0.00862205 0.00733858,0.0167638 0.00321654,0.00814961 0.00537008,0.014811 0.0064685,0.0200039 0.00109449,0.00519685 0.00211417,0.0140709 0.00306693,0.0266299 0.000472441,0.00628346 0.000433071,0.0127953 -0.000114173,0.0195551 -0.000547244,0.00675984 -0.00187008,0.0143819 -0.00396063,0.0228583l0.0547283 0.0120551c0.00477559,0.00113386 0.0138543,0.00372047 0.027252,0.00775591 0.0105748,0.00332283 0.0192283,0.00576378 0.0259567,0.00732283zm-0.180728 -0.152957c-0.0148465,-0.0224094 -0.029878,-0.0284094 -0.0450906,-0.0179921 -0.00483858,0.00331496 -0.00774409,0.0073937 -0.00872441,0.0122441 -0.000972441,0.00485039 0.000346457,0.0100039 0.00395669,0.0154567 0.00862598,0.0130197 0.0200748,0.0199331 0.0343346,0.0207323 0.00900394,0.000437008 0.0182717,-0.00150787 0.0278031,-0.00583071 -0.00131496,-0.0035 -0.00308661,-0.00757087 -0.0053189,-0.0122047 -0.00223622,-0.00463386 -0.00455118,-0.00876772 -0.00696063,-0.0124055zm0.183516 0.136673m-0.0119843 -0.259996l-0.0289961 0.0176024c-0.00357874,0.00217323 -0.00509843,0.00522047 -0.00455512,0.00914173 0.00053937,0.0039252 0.0025748,0.0088622 0.00609449,0.0147992 0.00203937,0.00344488 0.00582283,0.00900787 0.0113622,0.0167087 0.00553543,0.00769291 0.00950787,0.0135748 0.0119173,0.0176378 0.00666929,0.0112598 0.0152008,0.024689 0.0255827,0.0402874 0.0103819,0.0155984 0.0176102,0.0268386 0.021689,0.0337205 0.0129764,0.0218858 0.0207953,0.0394646 0.0234685,0.0527283 0.00319685,0.0163465 -0.000452756,0.0277008 -0.0109528,0.0340748 -0.0076378,0.0046378 -0.0177559,0.00535433 -0.0303583,0.00216142 -0.0126024,-0.00319685 -0.0202008,-0.00698425 -0.0227913,-0.0113583 0.00672835,-0.00451181 0.0110236,-0.0113701 0.0128701,-0.0205669 0.00185039,-0.00920472 -0.00112205,-0.020374 -0.00890551,-0.0335079 -0.00829134,-0.0107008 -0.0177598,-0.0236614 -0.0284094,-0.0388898 -0.0106417,-0.0152244 -0.0221772,-0.033315 -0.0345984,-0.0542677l-0.0189449 -0.0344252 -0.0382992 0.023248 -0.0222441 -0.0375276 0.043311 -0.0262913c-0.00171654,-0.00618504 -0.00225591,-0.0120197 -0.00161811,-0.0175118 0.000720472,-0.00809055 0.00358268,-0.0136575 0.00859449,-0.0167008 0.00453937,-0.00275197 0.0104449,-0.00304331 0.0177362,-0.000877953 0.0072874,0.00216929 0.0149173,0.00423622 0.0228937,0.00619291l0.0229094 -0.0139016 0.0222441 0.0375236zm0.106949 0.193205m0.0215118 -0.270646l-0.136217 0.0727795 -0.0203543 -0.0386063 0.13622 -0.0727756 0.0203504 0.0386024zm0.100642 0.0921969c-0.00570866,0.0178937 -0.0139213,0.0337244 -0.0246417,0.0474921 -0.0107205,0.0137717 -0.0229764,0.0243346 -0.0367559,0.0317008 -0.0251024,0.0134134 -0.0506654,0.0142835 -0.0766811,0.00262205 -0.0210315,-0.00938189 -0.0357047,-0.0219528 -0.0440118,-0.0377165 -0.00644094,-0.0122244 -0.00683071,-0.0258307 -0.00116929,-0.040811 0.00653937,-0.0175157 0.0196535,-0.0315315 0.0393386,-0.0420512 0.0211693,-0.011311 0.0422165,-0.0126614 0.0631575,-0.00405512 0.013626,0.00550394 0.0263071,0.0146024 0.0380472,0.0272953l0.00631102 -0.00955512 0.0364055 0.0250787zm-0.0552362 0.00291732c-0.00609843,-0.00498425 -0.0127205,-0.00887008 -0.0198661,-0.0116496 -0.00988189,-0.00379528 -0.0181457,-0.00391732 -0.0247913,-0.000366142l-0.00627165 0.00335433 0.0319961 0.0292874 0.0100315 -0.00968504c0.00187795,-0.00182677 0.00350787,-0.00352362 0.00488976,-0.00508661 0.00185827,-0.00305512 0.00319685,-0.00500394 0.00401181,-0.00585433zm-0.040248 0.039437l-0.0297323 -0.0267874c-0.0052874,0.00612205 -0.0085315,0.0107441 -0.00972835,0.0138543 -0.00328346,0.0075315 -0.0033189,0.0143504 -9.84252e-005,0.0204606 0.00254331,0.00482677 0.0065,0.00694094 0.0118661,0.00634252 0.00535827,-0.000594488 0.0116102,-0.00279921 0.0187441,-0.00661417 0.0027126,-0.00144488 0.00569291,-0.0038622 0.00894882,-0.00725591zm0.0978425 0.0704016m0.100638 -0.303504l-0.0278268 0.0135827c-0.00250787,0.00122047 -0.00288583,0.0036378 -0.00114173,0.00723622 0.000476378,0.000984252 0.00275591,0.00472441 0.00684646,0.0112283 0.00408661,0.00650787 0.00748031,0.0125394 0.0101811,0.0181024 0.0106378,0.0219291 0.0151181,0.0375472 0.013437,0.0468661 -0.0016811,0.0093189 -0.00916142,0.0172244 -0.0224488,0.0237087 -0.00827559,0.00403937 -0.0160591,0.00844488 -0.0233543,0.0132165 -0.016937,0.0111063 -0.0262874,0.0170827 -0.0280394,0.0179409 -0.0105354,0.00514173 -0.0181299,0.0136024 -0.0227992,0.0253937 -0.00466929,0.0117913 -0.00366535,0.0245591 0.00300394,0.0383031 0.00587402,0.0121063 0.0159291,0.018126 0.0301614,0.0180591 0.0108425,-2.75591e-005 0.0229055,-0.00328346 0.0361929,-0.00977165l0.0131614 -0.0064252c-0.00406693,-0.00327559 -0.00715748,-0.00612205 -0.0091811,-0.00837008 -0.00201969,-0.00225197 -0.0038622,-0.00509449 -0.00545276,-0.00836614 -0.00702756,-0.0144803 -0.00904724,-0.0269528 -0.00606299,-0.0374134 0.00298425,-0.0104646 0.00988583,-0.0182835 0.0206693,-0.0235512 0.0112835,-0.00550394 0.0233031,-0.00469291 0.0360669,0.00243307 0.0127598,0.00712598 0.0235118,0.019689 0.0322441,0.037689 0.00571654,0.0117795 0.00818898,0.022311 0.00742126,0.0315906 -0.000559055,0.00715354 -0.00275984,0.0134882 -0.00659055,0.019 0.00359055,0.00229528 0.00727165,0.00444488 0.0110354,0.00645276 0.00376772,0.00200787 0.00834252,0.0039252 0.0137205,0.00574803 0.00538583,0.00182283 0.0109764,0.00455906 0.0167756,0.00820472 0.00743701,0.00446457 0.0119528,0.00833071 0.0135394,0.0116024 0.00270079,0.00556299 0.00134646,0.0110866 -0.00405906,0.0165591 -0.00287795,0.00301575 -0.0070748,0.00587402 -0.0125866,0.00856693 -0.00275984,0.00134646 -0.00908268,-0.000822835 -0.0189803,-0.00651969 -0.00425591,-0.00237795 -0.00923622,-0.00561024 -0.0149449,-0.00970472l-0.0313937 -0.0186772c-0.00405906,0.00440945 -0.0100984,0.0085748 -0.018122,0.0124921 -0.0253228,0.0123583 -0.051752,0.0141339 -0.0792913,0.00531102 -0.0298386,-0.00972441 -0.0521417,-0.0297992 -0.0669055,-0.0602323 -0.00905512,-0.0186535 -0.0110394,-0.0379213 -0.00602362,-0.0577717 0.00446063,-0.0179606 0.0120827,-0.0295748 0.0229921,-0.0348976l0.0398386 -0.0212677c0.0117205,-0.00572047 0.0184685,-0.0111417 0.020189,-0.0162283 0.00177953,-0.00512205 1.9685e-005,-0.013063 -0.00522441,-0.0238661l-0.0100039 -0.0206142 -0.135764 0.0662677 -0.0190591 -0.0392677 0.131626 -0.0642441c-0.00203937,-0.00548425 -0.00272441,-0.0104094 -0.00205512,-0.0147835 0.00103543,-0.00616929 0.00468898,-0.0107874 0.0109567,-0.0138465 0.00401181,-0.00195669 0.0110472,-0.00215748 0.0211142,-0.000590551 0.00675591,0.00114961 0.0134291,0.00275197 0.0200039,0.00480315l0.0270787 -0.0132165 0.0190551 0.0392677zm0.0200669 0.178413c-0.00174409,-0.00359843 -0.00390945,-0.00629134 -0.00647638,-0.0080748 -0.00256693,-0.00177953 -0.00498031,-0.00211811 -0.00724016,-0.00101575 -0.00350787,0.0017126 -0.00562992,0.00436614 -0.00636614,0.00796457 -0.00073622,0.00359843 -0.000389764,0.00687008 0.00103937,0.00981496 0.00159055,0.00327165 0.00384252,0.0063189 0.00676378,0.00914567 0.00292126,0.0028189 0.00495276,0.00476378 0.00609055,0.00582677 0.00350787,-0.0017126 0.00613386,-0.00461024 0.00787008,-0.00869685 0.00173622,-0.00408661 0.00117717,-0.0090748 -0.0016811,-0.0149646zm0.159134 -0.00514567m0.0718307 -0.271705l-0.163189 0.0619016 -0.0157244 -0.0407087 0.163189 -0.0619055 0.0157244 0.0407126zm0.0633937 0.102551c-0.0137087,-0.00218504 -0.0272205,-0.00289764 -0.0405276,-0.00212205 -0.013315,0.000771654 -0.0250591,0.00308661 -0.0352323,0.00694488 -0.0127874,0.00485039 -0.0228898,0.0131535 -0.030311,0.0249134 -0.00872441,0.013815 -0.0101378,0.0283543 -0.00424016,0.0436181 0.00550394,0.014248 0.0147874,0.0268661 0.0278583,0.0378583 0.0130709,0.0109882 0.0245591,0.0146024 0.0344724,0.0108386 0.00261024,-0.000988189 0.00666142,0.00136614 0.0121496,0.00706299 0.00549213,0.00569685 0.00948425,0.0117717 0.0119724,0.0182126 0.00288583,0.00746063 0.00197638,0.0120866 -0.00272047,0.0138661 -0.014874,0.00564567 -0.0386378,-0.00245669 -0.0713031,-0.0242913 -0.0346181,-0.0230394 -0.0569134,-0.0474488 -0.0668701,-0.0732323 -0.00917323,-0.023748 -0.00858268,-0.0442953 0.00176378,-0.0616378 0.0103504,-0.0173504 0.0292244,-0.0312165 0.0566181,-0.0416063 0.0140866,-0.00534252 0.0292283,-0.00758268 0.0454094,-0.00672047 0.0113583,0.000744094 0.0208898,0.0025748 0.0285945,0.00548819 0.0041811,0.00152362 0.00731102,0.0018937 0.00939764,0.00109843 0.00182677,-0.000692913 0.00201969,-0.00290551 0.00057874,-0.00663386 0.00274409,0.00245669 0.00548819,0.00491732 0.00823622,0.00737795 0.00744882,0.00922441 0.0124882,0.0172362 0.0151102,0.0240157 0.00288189,0.0074685 0.00256299,0.0124488 -0.000956693,0.0149488zm0.00490551 0.114862m0.0449567 -0.254008l-0.0323307 0.0102756c-0.00398819,0.00126772 -0.00614567,0.0038622 -0.0064685,0.00777953 -0.000326772,0.00391732 0.000594488,0.00915748 0.00275984,0.0157165 0.00125197,0.00379921 0.00375591,0.0100551 0.00751575,0.0187795 0.00375591,0.00872047 0.00637795,0.0153268 0.00785827,0.019811 0.00409843,0.0124291 0.00955118,0.0273819 0.0163465,0.0448701 0.00679134,0.0174803 0.0114449,0.0300197 0.0139488,0.0376142 0.00797244,0.0241654 0.0118228,0.0429646 0.0115551,0.0564016 -0.000425197,0.0165354 -0.00649213,0.0266614 -0.0181969,0.0303858 -0.00851575,0.00270079 -0.0186142,0.00104724 -0.0302992,-0.0049685 -0.011685,-0.00601181 -0.0183189,-0.0114331 -0.0199134,-0.0162677 0.00759843,-0.00279528 0.013311,-0.0084252 0.0171339,-0.0168858 0.00382283,-0.00846063 0.00334646,-0.0199409 -0.00143701,-0.034437 -0.00581102,-0.0122677 -0.0122874,-0.0269921 -0.0194291,-0.0441772 -0.0071378,-0.0171811 -0.0145236,-0.0373386 -0.0221496,-0.0604685l-0.0111063 -0.0376654 -0.0426969 0.0135709 -0.0136693 -0.0414291 0.0482913 -0.0153425c-0.000338583,-0.00637795 0.000401575,-0.0121457 0.00223228,-0.0172992 0.0024685,-0.00765354 0.0065,-0.0123661 0.0120866,-0.0141378 0.00505512,-0.0016063 0.0109252,-0.000523622 0.0176142,0.00326378 0.00668504,0.0037874 0.0137362,0.00755906 0.0211417,0.0113031l0.0255433 -0.00811811 0.0136693 0.0414252zm0.0626693 0.220146m0.00817717 0.0581024c0.00607087,0.022063 0.0034685,0.0426181 -0.00779921,0.0616614 -0.0104803,0.0177165 -0.0242402,0.0287756 -0.0412795,0.0331772 -0.0273189,0.00706299 -0.0504528,0.00985433 -0.0694016,0.00836614 -0.0252087,-0.00211024 -0.0489488,-0.0109803 -0.0712126,-0.0266102 -0.00540551,-0.00385433 -0.00874016,-0.00806299 -0.00998819,-0.0126142 -0.00135433,-0.00490157 -0.000933071,-0.00941732 0.00126378,-0.0135512 0.00219291,-0.00412992 0.00559055,-0.00679134 0.010189,-0.00798031 0.00297244,-0.000767717 0.00661024,-0.000204724 0.0108937,0.00168898 0.00832283,0.00497638 0.0192835,0.00796063 0.0328858,0.00894488 0.0185827,0.00120472 0.0412638,-0.00166142 0.0680394,-0.00857874 0.0137953,-0.00356693 0.025622,-0.00981102 0.0354764,-0.0187323 0.00985827,-0.00892913 0.0141614,-0.0156693 0.0129055,-0.0202205 -0.00144488,-0.00525197 -0.0042126,-0.00819685 -0.00829528,-0.00883071 -0.00408661,-0.000629921 -0.00964567,-3.54331e-005 -0.0166811,0.00177953 -0.00919291,0.00237402 -0.0171063,0.00573228 -0.0237323,0.0100748 -0.0058937,0.00489764 -0.00982677,0.00797638 -0.0117992,0.00923622l-0.0408976 -0.0412047c0.00761811,-0.00496457 0.0138465,-0.0086378 0.0187008,-0.0110197 0.014622,-0.00790551 0.0276181,-0.0133228 0.0389803,-0.0162638 0.014063,-0.00363386 0.0282835,-0.000653543 0.0426614,0.00894882 0.014378,0.0096063 0.0240709,0.0235118 0.0290906,0.0417283zm-0.00564567 -0.0580118m0.166358 -0.123461c-0.00782283,-0.00211024 -0.0186929,-0.00370866 -0.0326063,-0.00479921 -0.0139213,-0.00109449 -0.0242638,-0.000767717 -0.0310236,0.000980315 -0.0146063,0.00377559 -0.0254528,0.00751575 -0.0325472,0.0112244 -0.00709449,0.00370866 -0.0130906,0.00770079 -0.018,0.0119685 0.00238976,0.0128898 0.00346457,0.0231142 0.00323228,0.0306811 -0.000393701,0.0143583 -0.00451575,0.0225472 -0.0123583,0.0245748 -0.0089252,0.00230709 -0.0202244,-0.00189764 -0.0338976,-0.012622 -0.0136693,-0.0107244 -0.0220984,-0.0218661 -0.0252756,-0.0334213 -0.00270079,-0.00980709 -0.00177165,-0.0190551 0.00272441,-0.0277205 0.00287402,-0.00561417 0.00720079,-0.0106732 0.0128504,-0.0151378l-0.0154724 -0.0562126c-0.00404724,-0.0147087 -0.00592913,-0.0267953 -0.00563386,-0.036248l-0.047874 0.0123701 -0.0115709 -0.0420315 0.150528 -0.0388976 0.0115669 0.0420315 -0.0458465 0.0118465c-0.0075748,0.00195669 -0.012252,0.00523228 -0.0140276,0.0098189 -0.00177953,0.00458268 -0.00194882,0.00950394 -0.0005,0.0147559l0.0169213 0.0614685c0.00465354,-0.00307874 0.0113425,-0.0066811 0.0199213,-0.0107756 0.00864567,-0.00411024 0.0172638,-0.00727559 0.0259882,-0.00952756 0.00838189,-0.00216535 0.0176181,-0.00361811 0.0275669,-0.00431102 0.0127402,-0.000287402 0.0255512,-0.000598425 0.0385551,-0.00096063l0.0167795 0.0609449zm-0.0296024 0.0852717m0.0663976 -0.248193l-0.0331732 0.00729134c-0.00409449,0.000905512 -0.0064685,0.00328346 -0.00712205,0.00714173 -0.00065748,0.0038622 -0.000181102,0.00914961 0.0014252,0.0158543 0.000933071,0.00388583 0.00290551,0.0103268 0.0059252,0.0193268 0.00301969,0.009 0.00507874,0.0157953 0.00617717,0.0203858 0.00304724,0.0127126 0.00723228,0.0280472 0.0125433,0.0460236 0.00531102,0.0179685 0.00890157,0.0308425 0.0107638,0.0386102 0.00592126,0.0247165 0.00817717,0.0437323 0.00677559,0.0570512 -0.00182283,0.0163819 -0.00874016,0.0258898 -0.0207559,0.0285315 -0.00873622,0.00192126 -0.018689,-0.000629921 -0.0298543,-0.00764961 -0.0111693,-0.00702756 -0.0173425,-0.0130079 -0.0185276,-0.0179488 0.00783071,-0.00209449 0.0140157,-0.00717323 0.0185512,-0.0152283 0.00453543,-0.00805906 0.00502756,-0.0195 0.00147244,-0.0343307 -0.00477165,-0.0127047 -0.00999606,-0.0279094 -0.0156772,-0.0456181 -0.0056811,-0.0177047 -0.0113543,-0.0383858 -0.0170236,-0.0620394l-0.00791339 -0.0384055 -0.0438189 0.00963386 -0.0101575 -0.0423661 0.0495591 -0.0108937c0.00019685,-0.0063622 0.0014252,-0.0120197 0.00368898,-0.0169803 0.00311811,-0.00737402 0.00754331,-0.011689 0.0132756,-0.0129488 0.00518898,-0.00114173 0.0109646,0.000464567 0.0173268,0.00483071 0.0063622,0.0043622 0.0130866,0.00873622 0.0201732,0.013122l0.0262087 -0.00575984 0.0101575 0.0423661zm0.0454528 0.225307m0.156094 -0.256374l-0.207161 0.033811 -0.00800787 -0.0427795 0.207157 -0.033811 0.00801181 0.0427795zm0.0779646 0.124492c-0.0166772,0.0188858 -0.0306929,0.0321929 -0.0420551,0.0399291 -0.0159331,0.0106811 -0.0324646,0.0174213 -0.0495866,0.0202126 -0.0127087,0.0020748 -0.0240866,0.0013622 -0.0341339,-0.00214173 -0.0100512,-0.00350394 -0.0202244,-0.00918898 -0.0305197,-0.0170591 -0.0113307,-0.00880709 -0.0201693,-0.0180197 -0.0265236,-0.0276378 -0.00478346,-0.00729921 -0.00774409,-0.0139803 -0.00887795,-0.0200433l-0.0132598 0.00216535c-0.00855906,0.00139764 -0.0186378,-0.00301969 -0.0302323,-0.013252 -0.0115945,-0.0102283 -0.0181575,-0.0194409 -0.0196929,-0.0276457 -0.001,-0.00534252 0.00125984,-0.0084685 0.00678346,-0.00937402 0.01,0.000208661 0.0195354,0.000212598 0.0286063,1.9685e-005 0.0090748,-0.000200787 0.0188622,-0.00114961 0.0293583,-0.0028622 0.0182283,-0.00297638 0.0345079,-0.00802362 0.0488307,-0.0151378 0.0119803,-0.0074685 0.0240984,-0.0149528 0.0363583,-0.0224646 0.00579921,-0.000944882 0.0140787,0.00412992 0.0248425,0.0152323 0.0107598,0.0111024 0.0170079,0.0212874 0.0187441,0.0305591 0.00113386,0.00605906 -0.000787402,0.00949606 -0.00575984,0.0103071 -0.00110236,0.000181102 -0.00631496,0.000476378 -0.015626,0.000897638 -0.0093189,0.000417323 -0.0183976,0.00134646 -0.0272323,0.0027874 -0.011878,0.00194094 -0.0229724,0.00806693 -0.0332835,0.0183858 -0.0103071,0.010315 -0.0148622,0.0186772 -0.0136614,0.0250984 0.00140551,0.00748819 0.0185394,0.00854724 0.0514094,0.0031811 0.0157441,-0.00256693 0.0290118,-0.00849606 0.0397953,-0.0177913 0.0107835,-0.00929134 0.0203386,-0.0236142 0.0286693,-0.0429764l0.0370472 0.0496102zm-0.0394843 0.101252m0.0873346 -0.240496l-0.0337677 0.00425984c-0.00416929,0.000527559 -0.00674016,0.00267717 -0.00772441,0.00644882 -0.000980315,0.00377559 -0.000948819,0.00907087 8.66142e-005,0.015874 0.000602362,0.00394488 0.0020315,0.0105157 0.00429134,0.0197283 0.00225591,0.00920472 0.00374016,0.0161417 0.00444882,0.0207953 0.0019685,0.0128937 0.00485433,0.0285079 0.00864173,0.0468307 0.00379134,0.0183268 0.0062874,0.0314331 0.00749213,0.039311 0.00383071,0.0250787 0.00448031,0.0441654 0.00194882,0.0572638 -0.00320472,0.0161024 -0.0109213,0.0249252 -0.0231496,0.0264685 -0.0088937,0.00112205 -0.018622,-0.00230709 -0.029189,-0.0102874 -0.0105709,-0.00798031 -0.0162362,-0.0144724 -0.017,-0.0194882 0.008,-0.00137402 0.0146102,-0.0058622 0.0198268,-0.0134528 0.0052126,-0.00759449 0.00667323,-0.0189134 0.00437402,-0.0339606 -0.00369291,-0.0130472 -0.00762992,-0.0286142 -0.011811,-0.0467087 -0.0041811,-0.0180945 -0.00810236,-0.0391417 -0.0117717,-0.0631457l-0.00465748 -0.0388465 -0.0446063 0.00562598 -0.00656299 -0.0429843 0.0504409 -0.0063622c0.00073622,-0.00629921 0.00244488,-0.0118071 0.00512205,-0.0165276 0.00374016,-0.00704331 0.00852756,-0.0109331 0.0143622,-0.0116693 0.00528346,-0.000665354 0.0109173,0.00145276 0.0169094,0.00635433 0.00598819,0.00490551 0.0123425,0.00985827 0.0190512,0.0148504l0.0266811 -0.00336614 0.00656299 0.0429882zm0.0287362 0.228587m-0.0657677 -0.264567l-0.0247638 0.00176378c-0.00746063,-0.0179606 -0.016122,-0.0338425 -0.0259803,-0.0476457 -0.016126,-0.0227835 -0.0317441,-0.0336417 -0.0468583,-0.0325669 -0.00951181,0.000681102 -0.0207165,0.00691732 -0.0336102,0.0187126 -0.00644882,0.00589764 -0.0121929,0.00902756 -0.0172283,0.00938189 -0.0053189,0.00038189 -0.0113976,-0.00535433 -0.0182362,-0.0171929 -0.00683858,-0.0118425 -0.0107362,-0.0224449 -0.011685,-0.0318031 -0.000515748,-0.00503937 0.00616142,-0.0114961 0.0200157,-0.019374 0.0138543,-0.00787795 0.0269409,-0.012252 0.0392559,-0.0131299 0.0215472,-0.0015315 0.0424843,0.00894488 0.0628071,0.0314291 0.0222205,0.0245276 0.0409843,0.0580039 0.0562835,0.100425zm0.0682992 0.264661m0.117724 -0.0605945c0.00135433,0.0133228 -0.000547244,0.0237874 -0.00568898,0.0314055 -0.0063622,0.00951969 -0.0169567,0.0148071 -0.0317913,0.0158622 -0.0162283,0.00115354 -0.0282874,-0.00170866 -0.0361732,-0.0085748 -0.00788583,-0.00687008 -0.0125748,-0.0176929 -0.0140748,-0.0324488 -0.0014252,-0.0140433 0.00137795,-0.0245748 0.00841339,-0.0316024 0.00703937,-0.0070315 0.0171339,-0.0110118 0.0302874,-0.0119449 0.0142717,-0.00101969 0.0256929,0.00179528 0.0342598,0.00843701 0.00856693,0.00664173 0.0134882,0.0162677 0.0147677,0.0288661zm0.03 0.0498583m0.120866 -0.0540354c0.000673228,0.0133504 -0.00175591,0.0236772 -0.0072874,0.0309961 -0.00685039,0.00914173 -0.0177205,0.0138425 -0.0326142,0.0140906 -0.0162953,0.000275591 -0.0282165,-0.00322441 -0.0357559,-0.0105 -0.00753937,-0.00727559 -0.011685,-0.018311 -0.012437,-0.0331024 -0.000712598,-0.0140748 0.00262598,-0.0244173 0.0100236,-0.0310433 0.00740157,-0.00662992 0.0177008,-0.0100472 0.0309055,-0.0102756 0.0143346,-0.00023622 0.0256181,0.0031811 0.0338504,0.0102677 0.00823622,0.00708268 0.0126693,0.0169409 0.013315,0.0295669zm0.121831 0.0522441m0.186146 -0.216417l-0.0320748 -0.00177165c-0.00281496,-0.000153543 -0.00479134,0.000188976 -0.00593307,0.00102362 -0.0011378,0.00084252 -0.00174409,0.00324409 -0.00181102,0.00720472l-0.000952756 0.0562126c-0.000476378,0.0281102 -0.00829921,0.0495 -0.0234724,0.0641732 -0.0100236,0.00990551 -0.0216693,0.0157559 -0.034937,0.0175512 0.00189764,0.0044252 0.00518504,0.0100236 0.00985433,0.0167717 0.00329921,0.00487008 0.00784252,0.0108937 0.0136339,0.018063 0.00965354,0.0120787 0.0202402,0.023126 0.0317559,0.0331339 0.0115157,0.0100157 0.0172402,0.017 0.0171693,0.0209685 -0.00011811,0.00720866 -0.00231496,0.0121339 -0.00658661,0.0147795 -0.00255906,0.00166535 -0.00581102,0.00238976 -0.00974803,0.00216929 -0.0092874,-0.000511811 -0.0217992,-0.00985827 -0.0375433,-0.0280394 -0.0135315,-0.0155354 -0.0296299,-0.0378858 -0.0482835,-0.0670472 -0.00990157,-0.0138937 -0.0185157,-0.0291535 -0.0258346,-0.0457913 -0.00732283,-0.0166339 -0.0109094,-0.0294567 -0.0107559,-0.0384606 0.000255906,-0.0151417 0.00566929,-0.0269252 0.0162283,-0.0353583 0.00885039,-0.00708268 0.018622,-0.0103346 0.029311,-0.00974409 0.00562992,0.000311024 0.0101181,0.00101181 0.0134803,0.00209843 0.0033622,0.00108661 0.00811811,0.00288189 0.0142717,0.00538583l-0.000192913 -0.0384252 -0.0991732 -0.00547244 0.000732283 -0.0432441 0.095374 0.00526378c0.000149606,-0.00864567 0.00215354,-0.014937 0.00609055,-0.0188661 0.00387008,-0.00393307 0.00897244,-0.00572441 0.0151575,-0.00538583 0.00766929,0.000425197 0.0152756,0.00426772 0.0228268,0.0115394 0.00332283,0.00342913 0.00745669,0.00870472 0.0124724,0.0158346l0.0396693 0.00218898 -0.000728346 0.0432441zm-0.0958976 0.0752323c4.33071e-005,-0.00243307 -0.00092126,-0.00374803 -0.00288976,-0.00385827 -0.00309055,-0.000173228 -0.00590551,-0.000326772 -0.00844094,-0.000464567 -0.00506299,-0.000279528 -0.00974409,0.00180315 -0.0140433,0.00625591 -0.00430315,0.00445276 -0.00648819,0.00902362 -0.00656693,0.0137087 -0.000137795,0.0079252 0.00218898,0.0120197 0.00697244,0.0122874 0.00674803,0.000370079 0.0125709,-0.0024685 0.0174606,-0.00850787 0.00488976,-0.00595276 0.0073937,-0.0124882 0.00750787,-0.0194213zm0.0836457 0.153063m0.0131457 -0.432693c-0.000366142,0.00719291 -0.00814567,0.0185748 -0.0233386,0.0341614 -0.00804331,0.00829134 -0.0136102,0.0123031 -0.0167008,0.0120197 -0.00393701,-0.000358268 -0.0118228,-0.00622441 -0.0236654,-0.0175984 -0.0118425,-0.0113701 -0.017626,-0.019748 -0.0173504,-0.0251417 0.000311024,-0.00611417 0.00565354,-0.0154646 0.0160354,-0.0280591 0.0103819,-0.0125984 0.0178228,-0.018689 0.022315,-0.0182756 0.00506299,0.000456693 0.0135197,0.00619291 0.025378,0.0172047 0.0118622,0.0110118 0.0176378,0.0195787 0.0173268,0.025689zm-0.0106142 0.438197m0.145543 -0.213693l-0.0119449 -0.00109055c-0.00913386,-0.000830709 -0.0149291,0.000716535 -0.0173819,0.00464567 -0.0025315,0.0039252 -0.00405512,0.0116378 -0.00464173,0.0231417l-0.000464567 0.00916142 -0.00387402 0.0760315c-0.000622047,0.0122205 -0.00299606,0.0228346 -0.00712598,0.0318465 -0.00633465,0.0135079 -0.0155433,0.0197087 -0.027626,0.0186063 -0.0168583,-0.00153937 -0.0307205,-0.0106575 -0.0415866,-0.0273543 -0.0108622,-0.0167008 -0.0158583,-0.0336772 -0.0149803,-0.0509331 0.00046063,-0.00898819 0.00370866,-0.0173543 0.00974803,-0.0251102 0.00604331,-0.00775591 0.0129961,-0.0112717 0.0208661,-0.0105551 0.00364961,0.000334646 0.00644488,0.000944882 0.00837402,0.00184646 0.00192913,0.000901575 0.00520866,0.00300394 0.00983858,0.00631496l0.00324409 -0.063626 -0.0661772 -0.00603543 0.00219685 -0.0431339 0.0661772 0.00603543c0.000346457,-0.00683071 0.00198819,-0.0127244 0.00485039,-0.0177047 0.00293307,-0.0049685 0.00798425,-0.00712598 0.0152205,-0.00646457 0.00920472,0.000838583 0.0181614,0.00508661 0.0270197,0.0127598 0.00587402,0.00522835 0.0105945,0.0108976 0.0142362,0.0170039l0.0162283 0.00147638 -0.00219685 0.0431378zm-0.0866575 0.0885197c-0.00026378,-0.000389764 -0.000389764,-0.00076378 -0.000370079,-0.00112205 -0.00157087,-0.00230709 -0.00404724,-0.00361811 -0.00742126,-0.00392913 -0.00449606,-0.000405512 -0.00688976,0.00226378 -0.0071811,0.00801969 -0.000476378,0.00933858 0.0015315,0.0142205 0.00602756,0.0146299 0.00393307,0.000358268 0.00661811,-0.00246457 0.00805118,-0.00847244 0.000377953,-0.00177559 0.000673228,-0.00481496 0.000893701,-0.00912598zm0.0706929 0.135402m0.145551 -0.20672l-0.0340039 -0.00494882c-0.00419685,-0.000610236 -0.00724409,0.000755906 -0.00914961,0.0041063 -0.00190551,0.00334646 -0.00320866,0.00842126 -0.00390157,0.0152047 -0.000401575,0.00393701 -0.000661417,0.0106024 -0.000771654,0.0200157 -0.000106299,0.00940945 -0.000401575,0.0164409 -0.000877953,0.0210827 -0.0013189,0.0128622 -0.0024252,0.0285669 -0.00333071,0.0471102 -0.000901575,0.0185433 -0.00175591,0.031748 -0.00256299,0.0396063 -0.00255906,0.0250118 -0.00671654,0.0434449 -0.0124724,0.0552953 -0.00716929,0.0145551 -0.0169094,0.0209291 -0.0292244,0.0191339 -0.00895276,-0.00129921 -0.0175827,-0.0071811 -0.0258858,-0.0176339 -0.00830315,-0.0104606 -0.0121969,-0.018189 -0.011685,-0.023189 0.00815354,0.000822835 0.0157244,-0.00170079 0.0227165,-0.00757087 0.00698819,-0.00587008 0.0112559,-0.016311 0.0127913,-0.031315 -0.000330709,-0.0134685 -0.000259843,-0.0294134 0.000204724,-0.0478386 0.000468504,-0.0184252 0.0019252,-0.0396063 0.00437402,-0.0635472l0.00520866 -0.0384055 -0.0449134 -0.00653543 0.00438976 -0.042878 0.0507874 0.0073937c0.00230315,-0.00582677 0.00535039,-0.0106417 0.00914567,-0.0144409 0.00541732,-0.00573622 0.011063,-0.00817717 0.0169409,-0.00732283 0.00531496,0.000775591 0.0102795,0.00430315 0.0148898,0.0105945 0.00461024,0.00629528 0.00956299,0.0127283 0.0148543,0.0192992l0.0268622 0.00390551 -0.00438583 0.042878zm0.0612638 0.24687m0.250772 -0.171319l-0.0136772 -0.00325197 0.00800787 -0.0421811 0.0136772 0.00324803 -0.00800787 0.042185zm0.0145709 0.146736c-0.00285827,-0.00471654 -0.00508661,-0.00818504 -0.00668504,-0.0104016 -0.00549606,-0.00755118 -0.010315,-0.0118189 -0.0144567,-0.0128031 -0.00994488,-0.0023622 -0.017437,0.00137008 -0.0224764,0.011189 -0.000889764,0.00162992 -0.0017874,0.00334252 -0.00270866,0.00514961 -0.00092126,0.00179921 -0.00161417,0.00392913 -0.00208268,0.00638976 -0.00447244,0.0235551 -0.0166654,0.0414134 -0.0365866,0.0535787 -0.0176535,0.0108701 -0.0390433,0.0133189 -0.0641772,0.00734646 -0.0298346,-0.00709055 -0.0533858,-0.0244409 -0.0706575,-0.0520591 -0.0157402,-0.0250433 -0.0214409,-0.0489961 -0.0171024,-0.0718425 0.0024685,-0.0130079 0.00514173,-0.0210039 0.00801969,-0.0239961 0.00287795,-0.00299213 0.00790551,-0.00363386 0.0150866,-0.00192913 0.00276378,0.00065748 0.00658268,0.0135984 0.0114685,0.0388228 0.00487795,0.0252244 0.0258268,0.0422362 0.0628386,0.0510236 0.0190591,0.0045315 0.034311,0.00365354 0.045748,-0.00263386 0.0114409,-0.00627559 0.0185984,-0.0169764 0.0214685,-0.0320945 0.00106693,-0.00562598 -0.000905512,-0.0119685 -0.00591339,-0.0190394 -0.0027126,-0.00394882 -0.00670079,-0.00801969 -0.0119685,-0.0122126 -0.00158268,0.000728346 -0.00483465,0.00151575 -0.00975984,0.00236614 -0.0049252,0.000854331 -0.0102835,0.00132283 -0.0160709,0.00141732 -0.00579528,9.44882e-005 -0.0105197,-0.000110236 -0.0141732,-0.000610236 -0.00366142,-0.000503937 -0.00838976,-0.00144094 -0.0141929,-0.00282283 -0.0060748,-0.00144094 -0.0108465,-0.0070748 -0.0143268,-0.0169016 -0.0034685,-0.00983071 -0.00444488,-0.0187835 -0.00290945,-0.0268661 0.00160236,-0.00843701 0.00530315,-0.0119646 0.0111063,-0.0105906 0.00118504,0.00138189 0.00377559,0.00291732 0.00778346,0.0046063 0.00401181,0.00168898 0.0123701,0.00403937 0.0250748,0.00705906 0.0110472,0.00262205 0.0222323,-0.000779528 0.0335512,-0.0102126 0.011315,-0.00943701 0.0180748,-0.0199488 0.0202795,-0.0315551 0.00160236,-0.00843307 -0.000192913,-0.0145512 -0.00538976,-0.0183661 -0.00519685,-0.00380315 -0.014563,-0.00731102 -0.0280945,-0.0105276 -0.0174016,-0.00413386 -0.031563,0.000122047 -0.0424803,0.0127756 -0.0109173,0.0126535 -0.0174803,0.0187165 -0.019689,0.0181929 -0.00608268,-0.00144882 -0.0103583,-0.00742126 -0.0128346,-0.0179331 -0.00248425,-0.0105039 -0.00258661,-0.0217362 -0.000318898,-0.033689 0.00200394,-0.0105433 0.0102008,-0.0175984 0.0245866,-0.0211575 0.0143898,-0.00355906 0.0315276,-0.00298031 0.0514173,0.00174016 0.0157402,0.00374016 0.0296654,0.0140354 0.0417677,0.0308701 0.0139134,0.0194685 0.0188031,0.0401024 0.0146654,0.0618976 -0.00240551,0.0126535 -0.00627165,0.023122 -0.0115984,0.0314094 -0.00368504,0.00573622 -0.00841339,0.0108622 -0.0141732,0.0153661 0.00277559,0.00359843 0.00441339,0.00638189 0.00491339,0.00833465l0.00408268 0.00813386c0.00349606,-0.0032126 0.00785827,-0.00566535 0.0130866,-0.0073622 0.00523228,-0.00169685 0.011437,-0.00168898 0.018622,1.5748e-005 0.00635039,0.00151181 0.0134055,0.00464961 0.0211535,0.00943701 0.00262992,0.00135433 0.00605906,0.00382677 0.0102874,0.00740157l-0.0061811 0.0530827zm-0.0614803 0.0754409m0.172772 -0.18276l-0.0331732 -0.00976378c-0.00409449,-0.00120079 -0.00731496,-0.000295276 -0.00966142,0.00273228 -0.00235039,0.00302756 -0.00432677,0.00783465 -0.00593701,0.0144252 -0.000929134,0.00381496 -0.00208661,0.0103465 -0.0034685,0.0196063 -0.00137795,0.00925591 -0.00262205,0.0161378 -0.00372047,0.0206457 -0.00304724,0.0124843 -0.00626772,0.0277953 -0.00967323,0.045937 -0.00340157,0.0181417 -0.00603543,0.0310276 -0.00789764,0.0386535 -0.00592126,0.0242717 -0.0125512,0.0418346 -0.0198819,0.052689 -0.00909843,0.0133031 -0.0196535,0.018189 -0.0316654,0.0146535 -0.00873622,-0.00257087 -0.0165315,-0.00960236 -0.0233858,-0.0210984 -0.00685039,-0.0114961 -0.00968504,-0.0196654 -0.0085,-0.0245197 0.008,0.00197638 0.0158819,0.000582677 0.0236299,-0.00420079 0.00775197,-0.00477953 0.0134055,-0.0144488 0.0169606,-0.0290157 0.00148819,-0.013315 0.0037126,-0.0290157 0.00666142,-0.0471024 0.00294882,-0.0180827 0.00726378,-0.0387441 0.0129291,-0.0619803l0.0103701 -0.0370906 -0.0438189 -0.0128937 0.0101575 -0.0416142 0.0495512 0.0145827c0.00307874,-0.00540945 0.00675984,-0.00971654 0.0110512,-0.0129134 0.00616535,-0.00487795 0.0121142,-0.0064685 0.0178465,-0.00478346 0.00519291,0.0015315 0.00965354,0.00572047 0.0133937,0.0125787 0.00374016,0.0068622 0.00779921,0.0139134 0.0121772,0.0211457l0.0262126 0.0077126 -0.0101575 0.0416142zm-0.0609213 0.213965m0.179071 -0.176193l-0.0328622 -0.0109409c-0.00405906,-0.00134646 -0.00731102,-0.000555118 -0.00976378,0.00238189 -0.00245276,0.00293307 -0.00459449,0.00766535 -0.0064252,0.0141811 -0.00106299,0.00377559 -0.00244094,0.010252 -0.0041378,0.0194449 -0.00169291,0.00918898 -0.00316929,0.0160157 -0.00442126,0.0204764 -0.00347244,0.0123504 -0.0072126,0.0275157 -0.0112362,0.0455 -0.00401575,0.0179843 -0.00708661,0.030752 -0.00920866,0.0382953 -0.00675197,0.0240197 -0.0139764,0.0413071 -0.0216772,0.051878 -0.00955512,0.0129488 -0.0202835,0.0174449 -0.032185,0.0134843 -0.00865748,-0.00288189 -0.0162165,-0.0101811 -0.022685,-0.0219016 -0.00646457,-0.0117205 -0.00902362,-0.0199803 -0.00767717,-0.0247795 0.00794094,0.00226378 0.015874,0.00115354 0.0237874,-0.00333858 0.00791732,-0.00449606 0.0139055,-0.0139449 0.0179528,-0.0283543 0.00194488,-0.0132323 0.00469685,-0.0288228 0.00826378,-0.0467756 0.00356299,-0.0179409 0.00857874,-0.0384134 0.0150354,-0.0613976l0.0116339 -0.0366457 -0.0434134 -0.0144488 0.0115709 -0.0411693 0.0490906 0.0163386c0.00326378,-0.00529134 0.00709449,-0.00945276 0.0114961,-0.0124882 0.00633465,-0.00464567 0.0123425,-0.00602362 0.0180197,-0.00413386 0.00514173,0.0017126 0.00946457,0.00605512 0.0129764,0.0130394 0.00351181,0.00698425 0.00733071,0.0141654 0.0114685,0.0215433l0.0259685 0.00864173 -0.0115709 0.0411693zm-0.0672205 0.21822m0.208402 -7.87402e-005c-0.00539764,-0.00631496 -0.0136339,-0.0140276 -0.0247165,-0.0231417 -0.0110827,-0.00911417 -0.0199488,-0.0149724 -0.0265984,-0.0175827 -0.0143661,-0.0056378 -0.0255591,-0.00907087 -0.0335787,-0.0103071 -0.00801969,-0.00124016 -0.0152795,-0.0016063 -0.0217756,-0.00110236 -0.00516535,0.0117047 -0.00994882,0.0205079 -0.0143543,0.0264055 -0.0083189,0.0112362 -0.0163386,0.0153346 -0.0240512,0.0123071 -0.00878346,-0.00344094 -0.0159291,-0.0134882 -0.0214449,-0.0301457 -0.00551575,-0.0166614 -0.0063937,-0.0305472 -0.0026378,-0.0416535 0.00318898,-0.00942913 0.00911417,-0.0162638 0.0177126,-0.0205197 0.00553937,-0.00278346 0.0119843,-0.00425984 0.0192165,-0.00447638l0.0182795 -0.0540472c0.00478346,-0.0141457 0.0099252,-0.0249055 0.0154331,-0.0322795l-0.0470906 -0.0184685 0.0136654 -0.0404094 0.148063 0.0580669 -0.0136654 0.0404094 -0.0450984 -0.017685c-0.00744882,-0.0029252 -0.0131969,-0.00307874 -0.0172441,-0.000468504 -0.00404331,0.0026063 -0.0069252,0.00643307 -0.00862992,0.0114882l-0.0199882 0.0591024c0.00562205,0.000295276 0.0132441,0.00137795 0.0227244,0.00318898 0.00955118,0.00183465 0.0185512,0.00441339 0.0271299,0.00777953 0.00824409,0.00323228 0.0168071,0.00754331 0.0255472,0.0128819 0.0108622,0.00730709 0.0217953,0.0146496 0.0329213,0.0220591l-0.0198189 0.0585984zm-0.0758661 0.0536929m0.19663 -0.155244l-0.0317047 -0.0143819c-0.00391339,-0.00177559 -0.00724016,-0.00133858 -0.00998425,0.00130709 -0.00274803,0.00264173 -0.0053622,0.00709449 -0.00785039,0.0133543 -0.00144488,0.00362598 -0.00348031,0.00989764 -0.00610236,0.0188228 -0.00262205,0.00891732 -0.0047874,0.0155236 -0.00649213,0.0198071 -0.00471654,0.0118583 -0.00999213,0.0264803 -0.0158268,0.0438661 -0.00583465,0.0173819 -0.0101969,0.0297008 -0.0130787,0.0369488 -0.00917323,0.0230669 -0.0181378,0.0394173 -0.0269016,0.0490551 -0.0108504,0.0118031 -0.0220157,0.0150945 -0.0334961,0.00988976 -0.00834646,-0.00379134 -0.0151535,-0.0118386 -0.0204252,-0.0241496 -0.00526772,-0.0123071 -0.00698425,-0.0207677 -0.00514961,-0.0253819 0.00769685,0.00310236 0.0157244,0.00285827 0.0240827,-0.00073622 0.0083622,-0.00359449 0.0152953,-0.012315 0.0207992,-0.0261535 0.00328346,-0.0129055 0.00761024,-0.0280551 0.0129882,-0.0454488 0.00537795,-0.0173937 0.0124606,-0.0371339 0.0212402,-0.0592087l0.0153268 -0.0350551 -0.041874 -0.0189961 0.0157244 -0.0395433 0.0473504 0.0214882c0.00379528,-0.00488976 0.00804331,-0.00860236 0.0127441,-0.0111378 0.00679134,-0.00392126 0.0129291,-0.00463386 0.0184094,-0.00214567 0.00495669,0.00224803 0.00883465,0.00701575 0.0116299,0.014315 0.00279528,0.00729921 0.00588583,0.0148268 0.00926772,0.0225827l0.0250433 0.0113661 -0.0157205 0.0395354zm-0.0890039 0.202524m0.273728 -0.11228l-0.192787 -0.0956693 0.0170709 -0.0388976 0.192791 0.0956654 -0.0170748 0.0389016zm-0.00378346 0.145563c-0.0245079,0.00520472 -0.043689,0.0075315 -0.0575315,0.00698031 -0.0193228,-0.000905512 -0.0369567,-0.00531102 -0.0528937,-0.0132165 -0.0118268,-0.00587008 -0.0209843,-0.0131772 -0.0274724,-0.0219252 -0.00648819,-0.00874409 -0.011874,-0.019311 -0.0161417,-0.0316929 -0.00461811,-0.0137402 -0.00691339,-0.0263307 -0.00690157,-0.0377717 4.72441e-005,-0.00865748 0.00127953,-0.0157441 0.00369685,-0.0212598l-0.0123386 -0.00612205c-0.0079685,-0.00395276 -0.0139724,-0.0134449 -0.0180197,-0.0284803 -0.00404331,-0.0150354 -0.00443307,-0.0262756 -0.00115748,-0.0337323 0.00212992,-0.0048622 0.00577165,-0.00601969 0.0109094,-0.0034685 0.0082874,0.00608661 0.0162913,0.0117362 0.0240197,0.0169528 0.00772835,0.00521654 0.0164803,0.010248 0.0262441,0.0150945 0.0169646,0.00842126 0.0334449,0.0140276 0.0494331,0.0168307 0.0142165,0.00112992 0.0285591,0.00232283 0.0430354,0.00358661 0.0053937,0.00267717 0.00952362,0.0116339 0.0123858,0.0268701 0.0028622,0.0152362 0.00244488,0.0270709 -0.00125984,0.0355 -0.00241732,0.00550787 -0.00594094,0.00711811 -0.0105669,0.0048189 -0.0010315,-0.000503937 -0.00557087,-0.00335433 -0.013626,-0.00853543 -0.00805906,-0.00517717 -0.0161969,-0.00981102 -0.0244213,-0.0138937 -0.0110551,-0.00548819 -0.0237795,-0.00716535 -0.0381772,-0.0050315 -0.0144016,0.00213386 -0.022878,0.00611811 -0.025437,0.0119528 -0.00298819,0.00681102 0.010811,0.0178031 0.0414016,0.0329803 0.0146535,0.00727559 0.0290945,0.0103898 0.0433189,0.00935433 0.0142283,-0.0010315 0.0302244,-0.00681102 0.0479921,-0.0173346l0.00350787 0.0615433zm-0.0880315 0.0600315m0.209626 -0.136469l-0.0304646 -0.0171378c-0.00376378,-0.00211417 -0.00712205,-0.00198425 -0.0100906,0.000393701 -0.0029685,0.00237795 -0.00596063,0.00656693 -0.00898031,0.012563 -0.00174409,0.0034685 -0.00430315,0.00951181 -0.00768504,0.0181378 -0.00337008,0.00862205 -0.00609843,0.0149843 -0.00816142,0.0190866 -0.00571654,0.0113543 -0.0122244,0.0253976 -0.0195236,0.0421378 -0.00730315,0.0167362 -0.0127008,0.0285748 -0.0161929,0.0355157 -0.0111181,0.0220787 -0.0214606,0.0375118 -0.0310276,0.0462953 -0.0118425,0.0107402 -0.0232795,0.0130079 -0.034315,0.00680315 -0.00801969,-0.00451181 -0.0141457,-0.0131142 -0.0183701,-0.025815 -0.00422441,-0.0126969 -0.00522047,-0.0212559 -0.003,-0.0256693 0.00742913,0.00377559 0.0154724,0.00424803 0.0241339,0.00143307 0.00865354,-0.0028189 0.0163228,-0.0108543 0.0229921,-0.0240984 0.00437008,-0.0125197 0.00997638,-0.0271732 0.0168228,-0.0439685 0.00684646,-0.0167874 0.0155866,-0.035748 0.0262283,-0.0568858l0.0182795 -0.0334291 -0.0402362 -0.0226339 0.0190551 -0.0378504 0.0455039 0.0255984c0.00420472,-0.00451969 0.00876378,-0.00782283 0.0136732,-0.00991339 0.00712205,-0.00327953 0.013315,-0.00343701 0.0185787,-0.000480315 0.00476772,0.0026811 0.00823622,0.00776772 0.0104173,0.0152677 0.00217717,0.0075 0.00462598,0.015252 0.00735039,0.0232559l0.0240669 0.0135433 -0.0190551 0.0378504zm-0.110437 0.194252m0.0919528 -0.250181l-0.0217756 -0.0132598c0.00372441,-0.0187598 0.00529134,-0.0365669 0.00468898,-0.0534213 -0.000866142,-0.027748 -0.00794488,-0.0456614 -0.0212323,-0.053752 -0.00837008,-0.00509055 -0.021248,-0.00674803 -0.0386417,-0.00496063 -0.00869685,0.000889764 -0.0152638,-1.1811e-005 -0.019689,-0.00270866 -0.00467717,-0.00284646 -0.00659055,-0.0110197 -0.00575197,-0.0245236 0.000846457,-0.0135079 0.00347244,-0.0242835 0.00788189,-0.032315 0.00237402,-0.00433071 0.0115709,-0.00553543 0.0275906,-0.00361811 0.0160197,0.00191732 0.0294449,0.00616929 0.0402717,0.0127598 0.0189488,0.0115354 0.0307047,0.0322953 0.0352638,0.0622835 0.00501969,0.0327441 0.00214961,0.0705827 -0.0086063,0.113516zm-0.0894213 0.255685m0.132583 0.0213268c-0.00627559,0.0114331 -0.0136929,0.0186693 -0.022252,0.0217047 -0.0106378,0.00383465 -0.0224764,0.00177953 -0.0355197,-0.00615748 -0.0142756,-0.00868898 -0.022815,-0.0181142 -0.0256142,-0.0282638 -0.00279528,-0.0101535 -0.000720472,-0.0215748 0.00623228,-0.0342441 0.00661811,-0.0120591 0.0148307,-0.0188071 0.0246535,-0.020252 0.0098189,-0.00144488 0.0205118,0.00135433 0.0320787,0.0083937 0.0125512,0.0076378 0.0205748,0.0166496 0.0240748,0.0270236 0.0035,0.010378 0.00227953,0.0209764 -0.00365354,0.0317953zm-0.00174016 0.0538622m0.130193 0.0354331c-0.00742126,0.0106535 -0.0155591,0.0170197 -0.0244134,0.0191102 -0.0110079,0.00264961 -0.0226181,-0.000665354 -0.0348386,-0.00994094 -0.0133661,-0.0101457 -0.0209331,-0.0204016 -0.0227008,-0.0307638 -0.00175984,-0.0103661 0.0014685,-0.0214488 0.00969685,-0.033252 0.00782283,-0.0112362 0.0167087,-0.0170354 0.0266614,-0.0174094 0.00994882,-0.000370079 0.0203425,0.00355906 0.0311732,0.0117795 0.0117559,0.0089252 0.0188543,0.0187165 0.0212953,0.029374 0.00244094,0.0106575 0.000149606,0.0210276 -0.00687402,0.0311024zm-0.00779134 0.0556732m0.129079 0.0400551c-0.0077874,0.0103661 -0.0161457,0.0164291 -0.0250748,0.0181929 -0.0111063,0.00224803 -0.0226142,-0.00148031 -0.0345236,-0.0111732 -0.0130354,-0.0106102 -0.0202598,-0.0211181 -0.0216732,-0.0315276 -0.00141339,-0.0104055 0.00219685,-0.0213583 0.0108228,-0.0328425 0.0082126,-0.0109291 0.0172992,-0.0163976 0.0272677,-0.0164094 0.00997244,-1.5748e-005 0.0202323,0.00427953 0.0307953,0.012878 0.0114646,0.00933071 0.0182362,0.0193583 0.0203189,0.0300866 0.00208268,0.0107283 -0.000562992,0.0209921 -0.00793307,0.0307953z"/>
 </g>
</svg>
