<?xml version="1.0" encoding="UTF-8"?>
<!DOCTYPE svg PUBLIC "-//W3C//DTD SVG 1.1//EN" "http://www.w3.org/Graphics/SVG/1.1/DTD/svg11.dtd">
<!-- Creator: CorelDRAW -->
<svg xmlns="http://www.w3.org/2000/svg" xml:space="preserve" width="18in" height="8in" style="shape-rendering:geometricPrecision; text-rendering:geometricPrecision; image-rendering:optimizeQuality; fill-rule:evenodd; clip-rule:evenodd"
viewBox="0 0 18 8"
 xmlns:xlink="http://www.w3.org/1999/xlink">
 <defs>
  <style type="text/css">
   <![CDATA[
    .fil0 {fill:#1C1B17}
    .fil1 {fill:#1C1B17;fill-rule:nonzero}
   ]]>
  </style>
 </defs>
 <g id="Layer_x0020_1">
  <metadata id="CorelCorpID_0Corel-Layer"/>
  <path class="fil0" d="M7.70978 5.33039c0.0959921,-0.0994685 0.245898,-0.140449 0.38824,-0.152535 0.118693,-0.0102283 0.319898,0.0343425 0.354748,0.152535 -0.247642,0 -0.495327,0 -0.742988,0zm0.364744 0.981492c0.0537874,-0.119681 -0.00434252,-0.234693 -0.0728819,-0.33889 -0.075437,-0.11448 -0.322217,-0.325756 -0.0211535,-0.337122 0.055874,-0.00215748 0.168374,0.0167638 0.269374,0.0159567 0,0.206626 0,0.413252 0,0.619878 0,0.0431378 0.121618,0.0642362 0.121618,0.0297559 0,-0.221917 0,-0.44389 0,-0.665862 0.0373858,-0.0129134 0.0649882,-0.0347008 0.0748583,-0.070185 0.000645669,-0.00223622 0.000385827,-0.00433858 0.000192913,-0.00649606 0,-0.00088189 0,-0.00174803 0,-0.00257087 -0.00462205,-0.0202165 -0.0425906,-0.0361732 -0.0750512,-0.0385472 0,-0.0415079 0,-0.0829606 0,-0.12439 0.0250236,-1.9685e-005 0.0500276,0 0.0750512,0 0,0.0542835 0,0.108571 0,0.162937 0.000192913,0.000822835 -6.29921e-005,0.00168898 0,0.00257087 0,0.229 0,0.458098 0,0.687098 0,0.0431969 0.121575,0.0642953 0.121575,0.029752 0,-0.286287 0,-0.572559 0,-0.858846 0.00651181,-0.00290551 0.0114567,-0.00675197 0.0117795,-0.0131102 0.000192913,-0.00357087 -0.000299213,-0.00688976 -0.000299213,-0.0104016 0.199933,-1.9685e-005 0.399846,0 0.599783,0 0.00272835,0.0431969 0.00709449,0.0861378 0.00698819,0.129551 -0.000259843,0.0848465 -0.109063,0.0619213 -0.168528,0.0554252 -0.088315,-0.00959843 -0.181016,0.0147402 -0.25637,0.055189 -0.196087,0.105256 -0.0914331,0.360654 0.0141024,0.482083 0.111535,0.128335 0.303067,0.235437 0.485114,0.243819 0.211157,0.00973228 0.352102,-0.147669 0.271051,-0.338811 -0.0155866,-0.0367205 -0.136988,-0.0503819 -0.121594,-0.0139331 0.039126,0.0921457 0.0222283,0.216969 -0.0748346,0.275122 -0.111858,0.0669449 -0.27974,-0.034878 -0.36539,-0.0962874 -0.157024,-0.112638 -0.263441,-0.314276 -0.13428,-0.478843 0.10902,-0.138878 0.289413,-0.00649606 0.419201,-0.0612559 0.0892402,-0.0377205 0.0500669,-0.179248 0.045252,-0.252059 0.294961,-1.9685e-005 0.589961,0 0.884917,0 0,0.0239252 0,0.0477874 0,0.0716535 -0.0171339,-0.0107559 -0.0399409,-0.0188583 -0.0575079,-0.0178386 -0.251787,0.0147402 -0.455594,0.210413 -0.48752,0.43435 -0.0312559,0.218949 0.130043,0.45735 0.325831,0.5735 0.191874,0.11387 0.452327,0.173378 0.680618,0.149571 0.237969,-0.0248858 0.550854,-0.192299 0.463205,-0.451992 -0.0125984,-0.0374685 -0.134728,-0.0530118 -0.121551,-0.013937 0.0734803,0.217657 -0.171516,0.368701 -0.373492,0.40122 -0.210039,0.0337992 -0.464945,-0.0333228 -0.626744,-0.156657 -0.1495,-0.11387 -0.235878,-0.295472 -0.226335,-0.471953 0.0101457,-0.18702 0.204429,-0.388913 0.413287,-0.40122 0.0044685,-0.000275591 0.00668504,-0.00121654 0.0102087,-0.00182677 0,0.0630236 0,0.125965 0,0.188984 0,0.0431378 0.121555,0.0642362 0.121555,0.0296732 0,-0.0164252 0,-0.0327953 0,-0.0492205 0.00262205,-0.00155118 0.00574016,-0.00270866 0.00748031,-0.00492913 0.0715472,-0.0927126 0.264173,-0.0739685 0.336492,0.013248 0.0500512,0.060315 0.0635079,0.163764 0.0593583,0.236244 -0.00612598,0.108709 -0.102118,0.148748 -0.206429,0.167492 -0.0867874,0.0156024 -0.335331,0.016622 -0.381768,-0.0798622 -0.0173268,-0.0361102 -0.138213,-0.0485551 -0.121551,-0.0139331 0.0593346,0.123331 0.256217,0.149433 0.386626,0.160524 0.163906,0.0138543 0.388862,-0.00871654 0.440075,-0.176874 0.0390394,-0.128138 -0.0334331,-0.321047 -0.167303,-0.380807 -0.0931299,-0.0416496 -0.241965,-0.0700472 -0.35298,-0.0366457 0,-0.0562677 0,-0.112516 0,-0.168764 0.27737,-1.9685e-005 0.554724,0 0.832094,0 0.082189,-1.9685e-005 -0.00188976,-0.0630197 -0.0473189,-0.0630197 -0.840996,0 -1.68199,0 -2.52303,0 -0.0460276,-0.122587 -0.222272,-0.181878 -0.355028,-0.203331 -0.219819,-0.0354252 -0.508886,0.0133268 -0.643402,0.189925 -0.00344094,0.0045315 -0.00455906,0.00900787 -0.0041063,0.0134055 -0.461787,0 -0.923575,0 -1.38534,0 0.0482638,-0.125492 0.117618,-0.248217 0.270535,-0.283996 0.200063,-0.0467874 0.449811,0.107925 0.564161,0.243154 0.0240787,0.0284567 0.146661,0.037189 0.113189,-0.00229921 -0.144724,-0.171197 -0.361988,-0.271685 -0.594,-0.30285 -0.267937,-0.0360354 -0.410386,0.134555 -0.486748,0.345992 -0.0943543,0 -0.188756,0 -0.283154,0 -0.0822087,0 0.00184646,0.0630197 0.0472953,0.0630197 0.0877362,-1.9685e-005 0.175406,0 0.263142,0 0,0.181465 0,0.362949 0,0.544413 0,0.0431378 0.121575,0.0642362 0.121575,0.0296929 0,-0.186685 0,-0.373429 0,-0.560114 0,-0.00502362 -0.00195669,-0.00967717 -0.00483858,-0.0139921 0.157756,-1.9685e-005 0.315469,0 0.473224,0 0,0.0235906 0,0.0471811 0,0.0708504 -0.160594,0.0333268 -0.321854,0.134283 -0.385059,0.253965 -0.0990236,0.187409 0.345587,0.187961 0.438673,0.189453 0.127079,0.00209843 0.266799,-0.00514173 0.387512,0.0369961 0.173945,0.0606457 0.0538543,0.28613 -0.0193268,0.372213 -0.133913,0.157657 -0.386972,0.212846 -0.593894,0.21324 -0.110913,0.000216535 -0.212921,-0.0351496 -0.305839,-0.0880236 -0.0627323,-0.0356417 -0.106567,-0.0865512 -0.128346,-0.150319 -0.0237323,-0.0694961 0.0390197,-0.180445 0.131894,-0.157189 0.0728819,0.0182559 0.0890236,-0.0373268 0.0163189,-0.0555197 -0.167626,-0.0419803 -0.315083,0.0660591 -0.259724,0.228331 0.0485433,0.142134 0.249791,0.221169 0.390346,0.260657 0.35722,0.10035 0.847299,-0.0490079 0.965323,-0.390327 0.0929606,-0.268843 -0.258154,-0.319224 -0.466193,-0.329232 -0.0825748,-0.00398425 -0.411307,0.034563 -0.442654,-0.0587402 -0.045122,-0.134283 0.343697,-0.296831 0.449469,-0.272768 0.0730748,0.0165039 0.0898425,-0.0388819 0.0162953,-0.0555039 -0.0233661,-0.00533858 -0.0479606,-0.00798819 -0.0731811,-0.00873228 0,-0.0198031 0,-0.0395472 0,-0.0593504 0.487823,-1.9685e-005 0.975622,0 1.46344,0 0,0.0608425 0,0.12176 0,0.182622 -0.193228,0.0285945 -0.67765,-0.0772283 -0.524969,0.187079 0.0862717,0.149433 0.426098,0.436252 0.15135,0.581902 -0.181728,0.0963425 -0.340063,-0.154835 -0.378354,-0.271827 -0.0346732,-0.105882 0.00629921,-0.201622 0.102272,-0.263953 0.0333425,-0.0216496 -0.0777598,-0.0662598 -0.112913,-0.0434134 -0.202189,0.13124 -0.120713,0.383909 0.0330866,0.522118 0.119598,0.107374 0.458154,0.237457 0.554189,0.0239449z"/>
  <path class="fil0" d="M8.44654 5.55634c0,0.000822835 0,0.00168898 0,0.00257087 -6.29921e-005,-0.00088189 0.000192913,-0.00174803 0,-0.00257087z"/>
  <path class="fil0" d="M8.52868 2.94396c0.209201,-0.070122 0.418339,0.0593701 0.594906,0.199051 -0.293736,0 -0.587425,0 -0.881138,0 0.0692913,-0.0855315 0.157457,-0.155909 0.286232,-0.199051zm0.292638 1.13627c-0.0495984,0.126571 -0.174291,0.248016 -0.315791,0.280067 0.0199291,-0.0763661 0.0648386,-0.151339 0.105063,-0.200697 0.058,-0.0712047 0.150122,-0.116031 0.237236,-0.153949 -0.00825591,0.0250039 -0.0169016,0.0499685 -0.0265079,0.0745787zm-1.08036 -0.72011c0,0.390484 0,0.780953 0,1.17144 0,0.111028 0.321744,0.213732 0.321744,0.293709 0,-0.456606 0,-0.913272 0,-1.36986 0.0029685,-0.00629921 0.00595669,-0.0124449 0.0089252,-0.0186654 0.322669,0 0.645272,0 0.967902,0 -0.14976,0.17065 -0.40589,0.214811 -0.610579,0.321831 -0.129012,0.0674764 -0.201374,0.173028 -0.241146,0.301224 -0.0429764,0.138406 0.0457913,0.243425 0.140898,0.337673 0.195209,0.193437 0.398346,0.368563 0.674795,0.170669 0.0399213,-0.0286142 0.0707717,-0.0624685 0.0963346,-0.0996614 0,0.0210197 0,0.0420394 0,0.0630787 0,0.111028 0.321724,0.213732 0.321724,0.293709 0,-0.462083 0,-0.924146 0,-1.38623 0,-0.000744094 -0.000366142,-0.00155118 -0.000409449,-0.00229528 0.0485866,0 0.0972165,0 0.145803,0 -0.0875866,0 -0.200154,-0.293728 -0.321748,-0.293728 -0.0179488,0 -0.0359449,0 -0.0539173,0 -0.151713,-0.13652 -0.323358,-0.258693 -0.488252,-0.368287 -0.151736,-0.100898 -0.309854,-0.149571 -0.496118,-0.124469 -0.251638,0.0337165 -0.36915,0.303717 -0.457315,0.492756 -0.0707283,0 -0.1415,0 -0.212232,0 0.0583268,0 0.127787,0.130102 0.203591,0.217106z"/>
  <path class="fil0" d="M10.1738 4.08022c-0.0495315,0.126492 -0.174268,0.248016 -0.315724,0.280067 0.0198858,-0.0763661 0.0648386,-0.15126 0.105063,-0.200697 0.0579803,-0.0712047 0.150079,-0.116031 0.237189,-0.15389 -0.00825591,0.0250236 -0.0168543,0.0499094 -0.0265276,0.0745197zm-0.467827 -0.643488c0.22872,0 0.457421,0 0.686142,0 -0.149799,0.170709 -0.405996,0.214752 -0.610642,0.321831 -0.129012,0.0674764 -0.201354,0.173028 -0.241169,0.301224 -0.0429724,0.138406 0.0458346,0.243425 0.140945,0.337673 0.195185,0.193437 0.398303,0.368563 0.674752,0.170669 0.039878,-0.0286142 0.0707717,-0.0624685 0.096311,-0.0996614 0,0.0210197 0,0.0420394 0,0.0630787 0,0.111028 0.321744,0.213732 0.321744,0.293709 0,-0.224878 0,-0.449756 0,-0.674713 0.107213,-0.0853976 0.221457,-0.160114 0.351028,-0.216913 0.0737598,-0.0323228 0.151327,-0.0458465 0.231516,-0.0458465 0.000818898,0.0374685 -0.0063189,0.0752677 -0.0147913,0.111831 -0.0416614,0.179386 -0.295087,0.222051 -0.427409,0.326169 -0.173598,0.136717 -0.0552717,0.330921 0.0535315,0.458433 0.063315,0.074248 0.140492,0.141055 0.216083,0.204681 0.00962992,0.00802756 0.126236,0.100803 0.0731378,0.0386063 -0.278343,-0.326189 0.0554213,-0.432189 0.300654,-0.59028 0.229906,-0.148161 0.0904449,-0.401969 -0.0526929,-0.543748 -0.133547,-0.132343 -0.280083,-0.292374 -0.48926,-0.301972 -0.0812205,-0.00372835 -0.163024,0.0177835 -0.241795,0.0525984 0,-0.0683583 0,-0.136717 0,-0.205075 0,-0.000744094 -0.000362205,-0.00155118 -0.000405512,-0.00229528 0.284787,0 0.569555,0 0.854323,0 -0.087563,0 -0.20015,-0.293728 -0.32172,-0.293728 -0.640697,0 -1.28135,0 -1.922,0 0.0875827,0 0.20015,0.293728 0.321724,0.293728z"/>
  <path class="fil0" d="M5.66896 2.87234c0.0509055,-0.0341496 0.113681,-0.0358976 0.173492,-0.037252 0.0414252,0.0155433 0.0700197,0.0242205 0.0882283,0.0273976 0.00956693,0.0195315 0.0165984,0.0400984 0.0225315,0.0611181 0,0.280126 0,0.560311 0,0.840437 -0.164055,-0.187961 -0.344598,-0.382142 -0.403441,-0.614343 -0.0291299,-0.115067 0.0187047,-0.209862 0.119189,-0.277358zm-0.170677 -0.327075l-0.0119094 0c-0.0271969,0.000374016 -0.0555512,0.00345669 -0.0852402,0.0096378 -0.554898,0.11548 0.257398,0.95276 0.365772,1.08732 0.0526063,0.0652953 0.120307,0.123921 0.186307,0.1795 0,0.0856102 0,0.171201 0,0.256811 0,0.00174803 0.00124803,0.0039252 0.00159055,0.00581102 -0.0143819,0.0276535 -0.029626,0.0549134 -0.0447795,0.0821535 -0.0462008,0.0473976 -0.0813504,0.104807 -0.100657,0.175047 -0.0131772,0.0479488 0.175728,0.175933 0.270043,0.246528 0.0172598,0.0157402 0.0344803,0.0314409 0.0517008,0.0472008 0.0346142,-0.0579567 0.0681102,-0.116303 0.10072,-0.175126 0.117724,-0.120484 0.308846,-0.174047 0.504224,-0.198106 0,0.0898504 0,0.179717 0,0.269508 0,0.111028 0.321748,0.213732 0.321748,0.293709 0,-0.194185 0,-0.388366 0,-0.582571 0.0328031,-0.000468504 0.0648386,-0.000724409 0.0948071,-0.00080315 -0.00823622,5.90551e-005 -0.0552953,-0.0519882 -0.0948071,-0.0964252 0,-0.233807 0,-0.467614 0,-0.701425 0.0539173,0 0.107878,0 0.161795,0 0,0.36248 0,0.725035 0,1.08752 0,0.111028 0.321724,0.213732 0.321724,0.293709 0,-0.460394 0,-0.920827 0,-1.38122 0.0347835,0 0.0695039,0 0.104287,0 -0.0138228,0 -0.134063,-0.142937 -0.149606,-0.157146 -0.0308504,-0.028126 -0.122134,-0.136579 -0.172138,-0.136579 -0.0343543,0 -0.0687323,0 -0.103087,0 -0.000255906,-0.00162992 -0.0011811,-0.00337795 -0.0011811,-0.00498819 0,0.00168898 0,0.00329921 0,0.00498819 -0.160807,0 -0.321551,0 -0.482339,0 -0.000279528,-0.00162992 -0.00120472,-0.00337795 -0.00120472,-0.00498819 0,0.00168898 0,0.00329921 0,0.00498819 -0.0821654,0 -0.164335,0 -0.24648,0 0.0138268,0 0.134067,0.142937 0.14961,0.157146 0.0182283,0.016626 0.0574843,0.0609213 0.0968701,0.0946575 0,0.182291 0,0.364579 0,0.54687 -0.143157,0.00196063 -0.308543,0.00992913 -0.461118,0.0425276 0,-0.254965 0,-0.510008 0,-0.76513 0.00275197,0.00345276 0.00558661,0.00690945 0.00623228,0.00940157 -0.00163386,-0.00630315 -0.00434252,-0.0121693 -0.00623228,-0.0183307 0,-0.000413386 0,-0.000866142 0,-0.00127559 0,-0.0071063 -0.00354724,-0.0152913 -0.00851575,-0.0238661 -0.0569488,-0.153752 -0.192776,-0.27952 -0.31639,-0.391819 -0.134217,-0.121921 -0.265508,-0.252299 -0.451748,-0.255224z"/>
  <path class="fil1" d="M6.37978 2.59934m0.166791 -0.0964528c-0.000334646,0.0085748 -0.00135039,0.0165551 -0.00304724,0.023937 -0.00169291,0.00738976 -0.00455118,0.0124134 -0.0085748,0.0150748 -0.00402362,0.00265748 -0.0150433,0.000440945 -0.0330591,-0.00666142 -0.00959055,-0.00385827 -0.0189409,-0.00764567 -0.028063,-0.0113543 -0.00607874,-0.00247638 -0.0168583,-0.00647244 -0.0323386,-0.012 -0.0136024,-0.00492126 -0.021811,-0.00784252 -0.0246299,-0.00875591 -0.0018622,0.00261811 -0.00485433,0.0061063 -0.00899213,0.0104724 -0.00413386,0.00435827 -0.00758661,0.00745276 -0.0103504,0.00928346 -0.0108071,0.00714961 -0.022815,0.00895276 -0.0360276,0.00539764 -0.0132126,-0.00354724 -0.0239764,-0.0113937 -0.0322874,-0.0235236 -0.00590551,-0.00861811 -0.00840551,-0.0179803 -0.00748425,-0.0281024 0.000917323,-0.010122 0.00514567,-0.0176732 0.012689,-0.0226614 0.0055315,-0.00366142 0.0116024,-0.00559055 0.0182205,-0.00579528 0.00662205,-0.000204724 0.0125118,0.000535433 0.017689,0.00221654 0.0014252,-0.00697638 0.00262992,-0.0124134 0.00361417,-0.016311 0.000980315,-0.00390157 0.00160236,-0.00779528 0.00186614,-0.0116732l-0.00145276 -0.0213071c-0.0205,0.00474409 -0.0395591,0.00598819 -0.0571811,0.00373228 -0.0285906,-0.00335039 -0.0497874,-0.0150748 -0.0635669,-0.0351811 -0.011378,-0.0165984 -0.0157244,-0.0323937 -0.0130354,-0.0473976 0.00268898,-0.015 0.00993701,-0.0264094 0.021752,-0.0342283 0.0105551,-0.00698425 0.0239094,-0.00909055 0.0400512,-0.00632283 0.00950394,0.00159843 0.0211457,0.00525984 0.0349331,0.0109843 0.0141575,0.00733465 0.027063,0.0154961 0.0387087,0.0244961 0.0116457,0.00899606 0.0215157,0.0193976 0.0296102,0.0312087 0.00437795,0.00638189 0.00747638,0.0111693 0.00930315,0.0143701 0.00182677,0.00320079 0.00449606,0.00908661 0.00800394,0.0176732 0.00350394,0.00857874 0.00585827,0.0156102 0.00705118,0.0210787 0.00119291,0.00547244 0.00231102,0.0148307 0.00334252,0.028063 0.000519685,0.00661811 0.000480315,0.0134882 -0.00011811,0.0206102 -0.000598425,0.00712205 -0.00203937,0.0151496 -0.0043189,0.0240827l0.0596772 0.0127047c0.00520079,0.00119685 0.0151063,0.00392126 0.0297126,0.00817717 0.0115315,0.0035 0.0209685,0.0060748 0.0283031,0.0077126zm-0.197071 -0.161185c-0.016189,-0.023622 -0.0325748,-0.0299409 -0.0491654,-0.0189606 -0.00527953,0.00349213 -0.00844882,0.00779134 -0.00951181,0.0129016 -0.00106693,0.00511024 0.000374016,0.0105354 0.00431496,0.0162835 0.00940551,0.0137244 0.0218898,0.0210079 0.0374409,0.0218504 0.0098189,0.000464567 0.0199213,-0.00158268 0.030315,-0.00614567 -0.00143701,-0.00368504 -0.00336614,-0.00797638 -0.00580315,-0.0128583 -0.00243307,-0.00488189 -0.00496457,-0.00924016 -0.00759055,-0.0130709zm0.200106 0.144028m-0.0130669 -0.273992l-0.0316142 0.0185472c-0.00390157,0.00229134 -0.00555906,0.0055 -0.0049685,0.00963386 0.000590551,0.0041378 0.00280709,0.00933465 0.00664567,0.0155984 0.00222441,0.00362205 0.00635039,0.00949213 0.0123898,0.0176024 0.00603543,0.00811024 0.0103661,0.0143071 0.0129921,0.0185945 0.00727559,0.0118622 0.0165787,0.0260157 0.0278937,0.0424528 0.0113228,0.0164409 0.0192047,0.0282835 0.0236535,0.0355315 0.0141457,0.0230709 0.0226772,0.0415945 0.0255906,0.0555709 0.00348819,0.0172244 -0.000492126,0.0291969 -0.0119409,0.0359134 -0.00833071,0.00488189 -0.0193622,0.00564173 -0.0331024,0.00227953 -0.0137402,-0.00337008 -0.0220276,-0.00735827 -0.0248543,-0.0119724 0.00734252,-0.00475591 0.0120197,-0.0119843 0.0140354,-0.0216811 0.00201575,-0.00969291 -0.00122441,-0.0214646 -0.0097126,-0.035311 -0.00904331,-0.0112717 -0.0193661,-0.0249331 -0.0309764,-0.0409764 -0.0116063,-0.0160472 -0.024185,-0.0351063 -0.0377283,-0.0571929l-0.0206535 -0.0362756 -0.0417677 0.0245 -0.024252 -0.0395472 0.0472283 -0.0277087c-0.00187795,-0.00651575 -0.0024685,-0.0126732 -0.00177165,-0.0184567 0.000787402,-0.00852756 0.00390945,-0.0143937 0.00937402,-0.0176024 0.00494488,-0.00289764 0.0113898,-0.00320866 0.0193386,-0.00092126 0.00794488,0.0022874 0.0162717,0.00446063 0.0249646,0.00652756l0.0249803 -0.0146535 0.0242559 0.0395472zm0.116618 0.203602m0.0234606 -0.285213l-0.148535 0.0766969 -0.0221929 -0.0406811 0.148539 -0.0767008 0.022189 0.040685zm0.10974 0.0971575c-0.00622441,0.0188583 -0.0151811,0.0355433 -0.0268701,0.0500472 -0.0116929,0.0145118 -0.0250512,0.0256457 -0.0400787,0.0334055 -0.027374,0.0141378 -0.055248,0.0150551 -0.0836181,0.00276772 -0.0229291,-0.00988583 -0.0389291,-0.0231378 -0.0479921,-0.039752 -0.00702362,-0.0128819 -0.00744882,-0.0272205 -0.00127165,-0.0430079 0.00712992,-0.0184567 0.0214291,-0.0332244 0.0428976,-0.044311 0.0230787,-0.0119173 0.0460354,-0.0133425 0.0688661,-0.00427559 0.0148543,0.00580315 0.0286811,0.0153898 0.0414803,0.0287677l0.0068937 -0.0100709 0.0396929 0.0264291zm-0.0602283 0.0030748c-0.00665354,-0.00525591 -0.013874,-0.00935039 -0.0216614,-0.0122795 -0.0107795,-0.00399606 -0.0197913,-0.00412598 -0.0270394,-0.00038189l-0.00683858 0.0035315 0.0348937 0.0308701 0.010937 -0.0102087c0.00204724,-0.00192913 0.00382283,-0.0037126 0.00533071,-0.00536614 0.00202756,-0.00321654 0.00348819,-0.00527559 0.00437795,-0.00616535zm-0.0438858 0.041563l-0.0324213 -0.0282323c-0.00577165,0.00645276 -0.00930315,0.0113189 -0.0106102,0.0146024 -0.00358268,0.00792913 -0.00361811,0.0151181 -0.000106299,0.0215591 0.00277559,0.00508661 0.00708661,0.0073189 0.0129331,0.00668898 0.00585039,-0.000633858 0.0126614,-0.00295276 0.0204409,-0.00697244 0.00295276,-0.00152362 0.00620866,-0.0040748 0.00976378,-0.00764567zm0.106685 0.0741929m0.109736 -0.319843l-0.0303425 0.014315c-0.00273622,0.0012874 -0.00314961,0.00383071 -0.00124803,0.00761811 0.000523622,0.00103937 0.00300787,0.00498031 0.0074685,0.0118346 0.00445669,0.00685827 0.00815354,0.0132165 0.0110984,0.0190787 0.0116063,0.0231063 0.0164882,0.0395669 0.0146575,0.0493898 -0.00183465,0.0098189 -0.00999213,0.0181457 -0.0244843,0.0249843 -0.00901969,0.00425591 -0.0175079,0.00890157 -0.0254646,0.0139331 -0.0184724,0.0117008 -0.0286654,0.018 -0.0305787,0.0189016 -0.0114803,0.00542126 -0.0197638,0.0143386 -0.0248543,0.0267598 -0.00509055,0.0124252 -0.00399606,0.0258819 0.00327559,0.0403622 0.00640945,0.0127638 0.0173701,0.0191063 0.0328898,0.0190394 0.0118189,-3.14961e-005 0.0249724,-0.0034685 0.0394646,-0.0103031l0.0143504 -0.00677165c-0.00444094,-0.00345276 -0.00780315,-0.00644488 -0.0100079,-0.0088189 -0.00220866,-0.00237402 -0.00422047,-0.00537008 -0.00595276,-0.0088189 -0.00766142,-0.0152598 -0.0098622,-0.0284016 -0.0066063,-0.0394252 0.00325591,-0.0110276 0.0107795,-0.0192717 0.0225354,-0.024815 0.0123031,-0.00580315 0.0254134,-0.00494882 0.0393307,0.00256299 0.0139134,0.00750787 0.0256339,0.020748 0.0351575,0.0397165 0.00623622,0.0124134 0.00893307,0.0235039 0.00809449,0.0332874 -0.000610236,0.00753937 -0.00300394,0.0142126 -0.00718898,0.0200276 0.00392126,0.00241732 0.00792913,0.0046811 0.0120354,0.00679528 0.0041063,0.00211417 0.00909449,0.0041378 0.0149646,0.00606299 0.00586614,0.00192126 0.0119646,0.00480315 0.0182874,0.00864567 0.00811024,0.00470472 0.0130315,0.00878346 0.0147638,0.0122244 0.00294488,0.00586614 0.0014685,0.011685 -0.00442913,0.0174488 -0.00313386,0.0031811 -0.00770866,0.00620079 -0.0137205,0.00903543 -0.00300787,0.00141732 -0.00990551,-0.000874016 -0.0206929,-0.00687402 -0.00464567,-0.00250394 -0.0100787,-0.00591339 -0.0162992,-0.0102283l-0.0342283 -0.019685c-0.00442913,0.00465354 -0.0110197,0.00904331 -0.0197677,0.0131693 -0.0276063,0.0130236 -0.0564291,0.0148898 -0.0864567,0.00559449 -0.0325354,-0.010248 -0.0568543,-0.0314055 -0.0729606,-0.0634764 -0.00987008,-0.0196575 -0.0120315,-0.0399567 -0.00656299,-0.0608819 0.00486614,-0.0189291 0.0131732,-0.0311654 0.0250669,-0.0367795l0.0434409 -0.0224094c0.0127795,-0.0060315 0.0201417,-0.0117441 0.0220157,-0.0171024 0.00194094,-0.00539764 1.9685e-005,-0.0137677 -0.00569685,-0.0251496l-0.0109055 -0.0217244 -0.148039 0.0698386 -0.0207835 -0.0413819 0.143531 -0.0677087c-0.00222835,-0.00577953 -0.00297244,-0.0109724 -0.00224409,-0.0155787 0.00112992,-0.00650394 0.00511417,-0.0113661 0.0119449,-0.0145906 0.00437402,-0.00206299 0.0120512,-0.00227165 0.0230236,-0.000622047 0.00736614,0.0012126 0.0146417,0.00290157 0.021815,0.00506299l0.0295236 -0.0139291 0.0207795 0.0413858zm0.0218819 0.188016c-0.00190551,-0.00379528 -0.00425984,-0.00662992 -0.00706299,-0.00850787 -0.00279921,-0.00187795 -0.00543307,-0.00223622 -0.0078937,-0.0010748 -0.00382283,0.00180709 -0.00614173,0.00460236 -0.00694094,0.00839764 -0.00080315,0.0037874 -0.000429134,0.00723622 0.00113386,0.0103386 0.00173228,0.00345276 0.00419291,0.00666142 0.00737795,0.0096378 0.00318504,0.00297244 0.0053937,0.00502362 0.00663386,0.00614567 0.00382677,-0.00180315 0.00668898,-0.0048622 0.00858661,-0.00916929 0.0018937,-0.00430315 0.00127953,-0.00955906 -0.00183465,-0.0157677zm0.17352 -0.0054252m0.0783307 -0.286335l-0.177945 0.0652362 -0.0171457 -0.0428976 0.177941 -0.0652402 0.0171496 0.0429016zm0.069126 0.108079c-0.0149488,-0.00230709 -0.0296811,-0.00305512 -0.0441969,-0.00224016 -0.0145157,0.000807087 -0.0273228,0.00324803 -0.0384173,0.00731496 -0.013937,0.00511417 -0.0249528,0.0138661 -0.0330512,0.0262559 -0.00950787,0.0145591 -0.0110512,0.029878 -0.00462205,0.0459685 0.006,0.0150157 0.016126,0.028311 0.030378,0.0398937 0.014252,0.0115827 0.0267795,0.0153937 0.0375945,0.0114252 0.00284252,-0.00104331 0.00725591,0.00144094 0.0132441,0.00744094 0.00598819,0.00600394 0.0103386,0.0124016 0.0130551,0.0191969 0.00314173,0.0078622 0.00214961,0.0127323 -0.0029685,0.0146063 -0.0162165,0.00594882 -0.0421299,-0.00258268 -0.077748,-0.0255984 -0.037752,-0.0242756 -0.0620591,-0.05 -0.0729213,-0.0771732 -0.0100039,-0.0250276 -0.0093622,-0.0466811 0.0019252,-0.0649567 0.0112874,-0.0182795 0.0318661,-0.0328976 0.0617362,-0.0438465 0.0153622,-0.00563386 0.0318701,-0.00799606 0.0495197,-0.00708661 0.0123819,0.000787402 0.0227717,0.00271654 0.0311772,0.0057874 0.00455906,0.00160236 0.00797638,0.00199606 0.010252,0.00116142 0.00199213,-0.000728346 0.00220079,-0.00305906 0.000629921,-0.00699606 0.00299213,0.00259055 0.00598425,0.00518504 0.00897638,0.00777559 0.00812992,0.00972835 0.013622,0.0181614 0.0164803,0.0253189 0.00314173,0.0078622 0.00279528,0.0131102 -0.00104331,0.015752zm0.00534646 0.121039m0.0490197 -0.267681l-0.035248 0.0108307c-0.00435039,0.00133465 -0.00670472,0.00406299 -0.00705512,0.00819291 -0.000358268,0.00412992 0.000645669,0.00964961 0.00300394,0.016563 0.00137008,0.004 0.00409843,0.0105945 0.00819685,0.0197874 0.00410236,0.00919291 0.00695669,0.0161535 0.00857087,0.0208819 0.0044685,0.0131024 0.0104094,0.0288622 0.0178228,0.0472795 0.00741339,0.0184291 0.0124803,0.0316378 0.0152165,0.0396457 0.00869291,0.0254646 0.0128898,0.0452795 0.0125906,0.059437 -0.000456693,0.0174252 -0.00707087,0.0280984 -0.0198386,0.0320197 -0.00928346,0.00285039 -0.0202953,0.0011063 -0.0330354,-0.00522441 -0.0127402,-0.00634252 -0.0199803,-0.0120551 -0.0217165,-0.0171496 0.0082874,-0.00294488 0.0145157,-0.00887795 0.018685,-0.0177953 0.00416535,-0.00891732 0.00364173,-0.0210157 -0.0015748,-0.0362953 -0.00633465,-0.0129252 -0.0133937,-0.0284488 -0.0211772,-0.0465551 -0.00777953,-0.0181063 -0.0158346,-0.0393465 -0.0241575,-0.0637205l-0.0121024 -0.0396929 -0.0465669 0.0142992 -0.0148976 -0.0436535 0.0526575 -0.0161732c-0.000374016,-0.00672047 0.000437008,-0.0127992 0.00242913,-0.0182323 0.00269291,-0.00806693 0.00709055,-0.0130315 0.0131811,-0.0149055 0.00551181,-0.00168898 0.0119134,-0.000543307 0.0192047,0.00345276 0.00729134,0.00398819 0.0149803,0.00795276 0.0230591,0.0119055l0.0278504 -0.00855512 0.0149016 0.0436575zm0.0683386 0.231992m0.00891339 0.0612323c0.00662205,0.023252 0.00378346,0.0449134 -0.00850394,0.0649843 -0.0114252,0.0186693 -0.0264291,0.0303268 -0.0450079,0.0349646 -0.0297913,0.00744094 -0.0550197,0.010378 -0.0756811,0.0088189 -0.0274882,-0.00222835 -0.0533701,-0.0115748 -0.0776535,-0.0280512 -0.0058937,-0.00406299 -0.00952362,-0.00849213 -0.0108898,-0.0132874 -0.00147244,-0.00517323 -0.00101181,-0.00992913 0.00137795,-0.0142835 0.0023937,-0.00435433 0.00609843,-0.00715354 0.0111142,-0.00840551 0.00324016,-0.000811024 0.00720472,-0.000216535 0.011878,0.00177559 0.0090748,0.00524409 0.0210276,0.00838583 0.0358583,0.00942913 0.0202638,0.00126378 0.0449921,-0.00175197 0.0741929,-0.00904724 0.0150394,-0.00375591 0.027937,-0.0103346 0.0386811,-0.0197402 0.010752,-0.00940551 0.015437,-0.0165079 0.0140709,-0.0213031 -0.0015748,-0.00553937 -0.00458661,-0.0086378 -0.00904331,-0.00931102 -0.00445669,-0.000665354 -0.0105157,-3.93701e-005 -0.018185,0.00187795 -0.0100276,0.00250787 -0.0186535,0.00604331 -0.0258858,0.0106142 -0.0064252,0.00516535 -0.0107165,0.00840945 -0.0128622,0.00973622l-0.0445945 -0.0434213c0.00830315,-0.00523228 0.0150984,-0.0091063 0.0203898,-0.0116142 0.0159488,-0.00833465 0.0301142,-0.0140472 0.0425039,-0.0171417 0.0153386,-0.00383071 0.0308465,-0.000685039 0.0465197,0.00943701 0.0156772,0.0101142 0.026252,0.0247756 0.0317205,0.0439685zm-0.00614961 -0.0611299m0.181398 -0.130114c-0.00852756,-0.00221654 -0.0203819,-0.00390157 -0.0355591,-0.00505512 -0.0151772,-0.00114961 -0.0264528,-0.00080315 -0.0338228,0.00103543 -0.0159291,0.00397638 -0.0277598,0.00792126 -0.0354882,0.0118268 -0.00773228,0.00391339 -0.0142795,0.00811417 -0.0196299,0.0126181 0.00260236,0.0135787 0.00377953,0.0243583 0.00351969,0.0323268 -0.000429134,0.0151299 -0.00491732,0.0237638 -0.0134685,0.0259016 -0.00973622,0.00242913 -0.0220551,-0.00200394 -0.0369646,-0.0133031 -0.0149094,-0.0112992 -0.0240984,-0.0230433 -0.0275669,-0.0352205 -0.00294094,-0.0103346 -0.0019252,-0.0200787 0.00297244,-0.0292126 0.00312992,-0.00592126 0.00785433,-0.011248 0.0140197,-0.0159567l-0.016874 -0.0592402c-0.00441339,-0.0155 -0.00646457,-0.0282323 -0.00614173,-0.0381969l-0.0522047 0.0130394 -0.0126181 -0.0442953 0.164138 -0.0409921 0.0126181 0.0442913 -0.05 0.0124882c-0.00825591,0.00206299 -0.0133543,0.00551181 -0.0152953,0.0103425 -0.00194094,0.00483071 -0.00212205,0.0100197 -0.000543307,0.0155551l0.0184488 0.0647795c0.00507874,-0.00324409 0.0123701,-0.00704724 0.0217244,-0.0113543 0.00942913,-0.00433465 0.0188268,-0.00766929 0.0283386,-0.0100472 0.00914173,-0.00227953 0.0192087,-0.00380709 0.030063,-0.00453937 0.0138898,-0.000307087 0.0278543,-0.000637795 0.0420433,-0.00101575l0.0182913 0.0642244zm-0.0322795 0.0898701m0.0724016 -0.261555l-0.0361732 0.00768898c-0.00446457,0.000944882 -0.00705118,0.00344882 -0.00776772,0.00752362 -0.000716535,0.00406693 -0.000192913,0.0096378 0.00155906,0.0167047 0.00101575,0.00409449 0.00316535,0.0108819 0.00646063,0.0203661 0.00329134,0.00948425 0.00553543,0.0166457 0.00673622,0.0214843 0.00332283,0.0133937 0.00788189,0.029563 0.0136732,0.0485 0.00579528,0.0189409 0.00970472,0.0325039 0.0117362,0.0406929 0.00646063,0.0260433 0.0089252,0.0460827 0.00738976,0.0601181 -0.00198425,0.0172638 -0.00952756,0.0272874 -0.0226299,0.0300709 -0.00952362,0.00202756 -0.020378,-0.000665354 -0.0325551,-0.00806299 -0.0121772,-0.00740157 -0.0189094,-0.0137047 -0.0202047,-0.0189173 0.00853937,-0.00220079 0.0152874,-0.00755512 0.0202323,-0.0160472 0.00494488,-0.00849213 0.00548031,-0.0205512 0.00160236,-0.0361811 -0.00519685,-0.0133858 -0.0108976,-0.0294094 -0.0170906,-0.0480709 -0.00619685,-0.0186575 -0.0123858,-0.0404528 -0.0185669,-0.065378l-0.00862205 -0.0404685 -0.0477874 0.0101535 -0.0110748 -0.0446535 0.0540394 -0.0114803c0.000216535,-0.00670472 0.00155906,-0.0126693 0.00401969,-0.0178898 0.00340157,-0.00777559 0.00822835,-0.0123268 0.0144803,-0.0136535 0.00565748,-0.00120866 0.0119567,0.000492126 0.0188898,0.00509055 0.00694094,0.00459843 0.0142717,0.00920866 0.0220039,0.0138346l0.0285787 -0.0060748 0.0110709 0.0446496zm0.049563 0.237437m0.170209 -0.270177l-0.22589 0.0356299 -0.00873622 -0.0450827 0.225894 -0.0356299 0.00873228 0.0450827zm0.0850118 0.131193c-0.0181811,0.0199055 -0.0334685,0.0339291 -0.0458583,0.0420748 -0.0173701,0.0112638 -0.0353937,0.0183622 -0.0540669,0.0213071 -0.0138583,0.00218504 -0.0262638,0.00143307 -0.0372205,-0.00225591 -0.0109567,-0.00369291 -0.0220512,-0.00968898 -0.0332835,-0.0179803 -0.0123504,-0.00928346 -0.0219882,-0.0189882 -0.0289213,-0.029126 -0.0052126,-0.00769291 -0.00844094,-0.0147323 -0.00967717,-0.021122l-0.0144567 0.00227953c-0.00933465,0.00147244 -0.0203268,-0.00317717 -0.0329724,-0.0139646 -0.0126417,-0.0107795 -0.0197992,-0.0204921 -0.0214724,-0.0291339 -0.00109055,-0.00563386 0.00137402,-0.0089252 0.00739764,-0.00987795 0.0109055,0.000216535 0.0213071,0.000220472 0.0312008,1.9685e-005 0.0098937,-0.000208661 0.0205591,-0.0012126 0.0320039,-0.00301575 0.0198819,-0.0031378 0.0376299,-0.00845669 0.053248,-0.0159528 0.013063,-0.00786614 0.0262795,-0.0157559 0.0396457,-0.0236732 0.00632283,-0.000996063 0.0153543,0.00435433 0.0270866,0.0160512 0.0117323,0.0117008 0.0185472,0.022437 0.020437,0.0322047 0.00123622,0.00638583 -0.000854331,0.0100079 -0.00627559,0.0108622 -0.00120472,0.000192913 -0.00688583,0.000503937 -0.0170433,0.000944882 -0.0101575,0.000440945 -0.0200591,0.00142126 -0.0296929,0.00294094 -0.0129528,0.00204331 -0.0250433,0.0085 -0.0362874,0.019374 -0.0112441,0.0108701 -0.0162047,0.019685 -0.0148937,0.0264488 0.00152756,0.00788976 0.0202126,0.00900787 0.0560512,0.00335433 0.0171693,-0.00270866 0.0316339,-0.00896063 0.0433937,-0.018748 0.0117559,-0.00979528 0.0221811,-0.0248898 0.0312677,-0.0452953l0.0403898 0.0522835zm-0.0430512 0.106705m0.0952362 -0.253445l-0.0368228 0.00448819c-0.00454724,0.000559055 -0.00735433,0.0028189 -0.00842126,0.00679921 -0.00107087,0.00397638 -0.00103937,0.00955512 9.44882e-005,0.0167244 0.000653543,0.00415354 0.0022126,0.0110787 0.00467323,0.0207874 0.00246457,0.00970079 0.00407874,0.0170079 0.00485433,0.0219173 0.00214567,0.0135945 0.0052874,0.0300433 0.00942126,0.0493543 0.0041378,0.019315 0.00685827,0.033122 0.00816929,0.0414291 0.00417717,0.0264252 0.00488583,0.0465394 0.00212598,0.0603465 -0.00349213,0.0169685 -0.0119094,0.0262638 -0.0252441,0.0278937 -0.00969685,0.0011811 -0.0203071,-0.00243307 -0.0318307,-0.0108386 -0.0115197,-0.00840945 -0.0176969,-0.0152559 -0.0185354,-0.0205394 0.00872835,-0.00145276 0.015937,-0.00617717 0.021622,-0.0141811 0.00568504,-0.00800394 0.00727559,-0.0199291 0.00476772,-0.0357874 -0.00402362,-0.013748 -0.0083189,-0.0301535 -0.012878,-0.0492244 -0.00455512,-0.0190669 -0.00883465,-0.041248 -0.0128346,-0.0665433l-0.00507874 -0.0409331 -0.0486378 0.0059252 -0.00716142 -0.0453031 0.0550039 -0.00670079c0.00080315,-0.0066378 0.00266535,-0.0124449 0.00558661,-0.0174213 0.00407874,-0.00742126 0.00929528,-0.0115236 0.0156614,-0.0122992 0.00575984,-0.000700787 0.0119055,0.0015315 0.0184331,0.00670472 0.0065315,0.00516535 0.0134606,0.010378 0.0207756,0.0156457l0.0290945 -0.00354331 0.00716142 0.0452992zm0.0313307 0.24089m-0.0717165 -0.278803l-0.0270039 0.00185433c-0.0081378,-0.0189291 -0.0175787,-0.0356654 -0.0283268,-0.0502165 -0.0175827,-0.0240079 -0.0346181,-0.0354488 -0.0510984,-0.034315 -0.010374,0.000712598 -0.0225866,0.0072874 -0.0366496,0.0197165 -0.0070315,0.00621654 -0.0132913,0.00951575 -0.0187835,0.0098937 -0.00579921,0.000397638 -0.0124252,-0.00564567 -0.0198858,-0.018126 -0.00746063,-0.0124803 -0.0117087,-0.0236535 -0.0127441,-0.0335118 -0.000559055,-0.00531496 0.00672047,-0.012122 0.0218268,-0.0204213 0.0151102,-0.00829921 0.029378,-0.0129134 0.0428071,-0.0138346 0.0234961,-0.00161811 0.0463268,0.00942913 0.0684843,0.033122 0.0242323,0.0258465 0.0446929,0.061126 0.061374,0.105839zm0.0744764 0.278906m0.12837 -0.0638583c0.00147638,0.0140354 -0.000594488,0.0250669 -0.00620472,0.0330984 -0.00693307,0.0100315 -0.0184921,0.0156024 -0.0346614,0.0167126 -0.0177008,0.00122047 -0.0308465,-0.00179528 -0.0394488,-0.00903937 -0.00859843,-0.00723622 -0.0137126,-0.0186378 -0.0153465,-0.0341969 -0.00155512,-0.0147913 0.00150394,-0.0258937 0.00917717,-0.0332992 0.00767323,-0.00740945 0.0186811,-0.0115984 0.0330236,-0.0125906 0.015563,-0.00106693 0.0280157,0.0018937 0.0373543,0.00889764 0.00934252,0.007 0.0147126,0.0171378 0.0161063,0.0304173zm0.0327126 0.0525433m0.131791 -0.0569449c0.000740157,0.0140669 -0.00190945,0.0249567 -0.00794488,0.0326693 -0.0074685,0.00963386 -0.0193189,0.0145866 -0.0355591,0.0148465 -0.0177756,0.000291339 -0.0307677,-0.00340157 -0.0389921,-0.0110709 -0.00822047,-0.00766142 -0.0127441,-0.0192913 -0.013563,-0.0348819 -0.000775591,-0.0148307 0.00286614,-0.0257362 0.010937,-0.0327165 0.00806693,-0.00698425 0.0192953,-0.0105866 0.0336969,-0.0108228 0.0156299,-0.000251969 0.0279331,0.00335039 0.0369094,0.0108189 0.00898031,0.00746063 0.0138189,0.0178504 0.0145157,0.0311575zm0.13285 0.0550551m0.202976 -0.228067l-0.0349764 -0.00186614c-0.00306299,-0.000165354 -0.00522047,0.00019685 -0.00646457,0.00107874 -0.00124016,0.000885827 -0.00190157,0.00341732 -0.00197244,0.00759055l-0.00103937 0.0592441c-0.000523622,0.029622 -0.00905118,0.0521614 -0.0255984,0.067622 -0.0109291,0.010437 -0.023626,0.0166063 -0.0380945,0.0184961 0.00206693,0.00466929 0.00564961,0.010563 0.0107441,0.0176772 0.00359449,0.00513386 0.00855118,0.0114764 0.0148661,0.0190354 0.0105236,0.0127244 0.0220669,0.0243701 0.034626,0.0349173 0.0125591,0.0105512 0.0188031,0.0179173 0.0187283,0.0220945 -0.000133858,0.00759843 -0.00252756,0.0127874 -0.0071811,0.0155827 -0.00279528,0.00175197 -0.00633858,0.00251181 -0.0106378,0.00228346 -0.010122,-0.000543307 -0.0237677,-0.0103858 -0.040937,-0.0295512 -0.0147598,-0.016374 -0.0323071,-0.0399213 -0.0526496,-0.0706575 -0.0107992,-0.0146378 -0.020189,-0.0307205 -0.0281732,-0.048252 -0.00798425,-0.0175315 -0.0118937,-0.0310472 -0.0117283,-0.0405394 0.000279528,-0.0159528 0.0061811,-0.0283661 0.0177008,-0.0372598 0.00964961,-0.0074685 0.0203031,-0.0108858 0.0319567,-0.0102638 0.0061378,0.000326772 0.0110394,0.00106299 0.0147008,0.00220866 0.00366929,0.00114567 0.00885433,0.00303543 0.0155669,0.00567717l-0.000212598 -0.0404921 -0.108142 -0.00576772 0.000795276 -0.0455709 0.104004 0.00554724c0.00015748,-0.00911811 0.00234252,-0.015748 0.00664173,-0.0198898 0.00421654,-0.00414567 0.00977559,-0.00603543 0.0165276,-0.00567323 0.00835827,0.000444882 0.0166535,0.0045 0.0248898,0.0121575 0.00362205,0.00361811 0.00812992,0.0091811 0.0136024,0.0166929l0.0432559 0.00230709 -0.000799213 0.0455709zm-0.104567 0.0792795c4.72441e-005,-0.00256299 -0.00100394,-0.00394882 -0.00314961,-0.00406299 -0.00337402,-0.000181102 -0.00644488,-0.000346457 -0.00920472,-0.000492126 -0.00552362,-0.000291339 -0.010626,0.00190157 -0.015315,0.00659449 -0.00468898,0.00469291 -0.0070748,0.00950787 -0.00716142,0.0144449 -0.000145669,0.00835433 0.00238583,0.0126732 0.00760236,0.0129488 0.0073622,0.000393701 0.0137087,-0.00259449 0.0190394,-0.00896457 0.00533071,-0.00627165 0.00806299,-0.0131535 0.00818898,-0.0204685zm0.0912087 0.161307m0.0143307 -0.455988c-0.000397638,0.00757087 -0.00887795,0.0195709 -0.0254409,0.036 -0.00877559,0.00874409 -0.0148465,0.0129646 -0.0182165,0.0126654 -0.0042874,-0.000377953 -0.0128937,-0.00655906 -0.0258031,-0.0185472 -0.0129134,-0.0119843 -0.0192205,-0.020811 -0.0189173,-0.0264921 0.000334646,-0.00644094 0.00616535,-0.0162992 0.0174843,-0.0295748 0.0113189,-0.0132717 0.0194331,-0.0196929 0.0243346,-0.0192638 0.00551181,0.000488189 0.0147402,0.00653543 0.0276693,0.0181417 0.012937,0.0116063 0.0192323,0.0206299 0.0188898,0.0270709zm-0.0115669 0.461787m0.158701 -0.225193l-0.0130236 -0.00114961c-0.00995669,-0.000877953 -0.0162756,0.000751969 -0.0189567,0.0048937 -0.00275984,0.00413386 -0.00441732,0.0122677 -0.00505906,0.0243858l-0.000507874 0.00965748 -0.00422047 0.080122c-0.000681102,0.012878 -0.00326772,0.0240669 -0.00777165,0.033563 -0.00690551,0.0142323 -0.0169449,0.0207717 -0.030122,0.0196102 -0.0183858,-0.00162205 -0.0335,-0.0112323 -0.0453504,-0.0288307 -0.0118425,-0.0176024 -0.0172874,-0.0354921 -0.0163307,-0.0536772 0.000496063,-0.0094685 0.00404331,-0.0182913 0.0106299,-0.0264606 0.00658268,-0.00817323 0.0141693,-0.0118819 0.022748,-0.011126 0.00398425,0.000354331 0.00702362,0.001 0.00913386,0.00194882 0.0021063,0.000944882 0.00567717,0.00316535 0.0107283,0.00665748l0.00353543 -0.0670512 -0.0721575 -0.0063622 0.0023937 -0.0454567 0.0721575 0.0063622c0.00038189,-0.00720079 0.00216929,-0.0134173 0.00529134,-0.0186614 0.00320079,-0.00523622 0.00870866,-0.00751181 0.0165984,-0.00681102 0.0100354,0.00088189 0.0198031,0.0053622 0.0294606,0.0134449 0.00640157,0.00551181 0.0115551,0.0114803 0.0155236,0.0179213l0.0176969 0.00156299 -0.00239764 0.0454567zm-0.0944921 0.0932795c-0.000291339,-0.000405512 -0.00042126,-0.000799213 -0.000401575,-0.00117717 -0.00172047,-0.00243701 -0.00441732,-0.0038189 -0.00809055,-0.0041378 -0.00490551,-0.000437008 -0.00751575,0.00238189 -0.00783858,0.00844094 -0.000515748,0.00984646 0.00167323,0.0149882 0.00657874,0.0154213 0.0042874,0.000377953 0.00721654,-0.00259843 0.00878346,-0.00893307 0.000405512,-0.0018622 0.000724409,-0.00507087 0.000968504,-0.00961417zm0.0770827 0.142693m0.158713 -0.217846l-0.0370748 -0.00521654c-0.00457874,-0.000641732 -0.00790157,0.000795276 -0.00998031,0.00432677 -0.00207874,0.00352756 -0.00349606,0.00887402 -0.00425197,0.0160276 -0.000437008,0.00414173 -0.000720472,0.0111654 -0.000838583,0.0210866 -0.000122047,0.00992126 -0.000440945,0.0173228 -0.000964567,0.0222205 -0.00143307,0.0135591 -0.00264173,0.0301063 -0.00362992,0.0496457 -0.000984252,0.0195433 -0.00191339,0.0334567 -0.0027874,0.0417402 -0.00279134,0.0263543 -0.00732677,0.0457795 -0.0136063,0.0582717 -0.00781496,0.0153346 -0.018437,0.0220551 -0.0318661,0.0201654 -0.00976378,-0.00137402 -0.0191732,-0.00757087 -0.0282244,-0.0185827 -0.00905512,-0.0110236 -0.0133031,-0.0191654 -0.0127441,-0.0244409 0.00888583,0.000870079 0.0171457,-0.00179134 0.0247717,-0.00798031 0.00762205,-0.00618504 0.0122717,-0.017185 0.0139409,-0.0330039 -0.000350394,-0.014185 -0.000275591,-0.0309921 0.000232283,-0.0504094 0.000507874,-0.0194134 0.00209449,-0.0417402 0.00476772,-0.0669685l0.00567717 -0.0404685 -0.0489764 -0.00688976 0.0047874 -0.045185 0.0553858 0.0077874c0.00250787,-0.00614173 0.00583071,-0.0112126 0.0099685,-0.0152126 0.00590551,-0.00605512 0.012063,-0.00862598 0.0184724,-0.00772441 0.00579528,0.000814961 0.0112087,0.00453543 0.0162362,0.0111693 0.00502756,0.00662992 0.0104291,0.0134094 0.0161969,0.0203346l0.0292913 0.00412205 -0.00478346 0.045185zm0.0668071 0.260157m0.273441 -0.180539l-0.0149094 -0.0034252 0.00873622 -0.0444528 0.0149055 0.00342126 -0.00873228 0.0444567zm0.0158898 0.154638c-0.00311417,-0.00497638 -0.00554331,-0.00862992 -0.00729134,-0.0109685 -0.00598819,-0.00795669 -0.0112441,-0.0124528 -0.0157598,-0.0134882 -0.0108425,-0.00248819 -0.0190118,0.00144488 -0.0245118,0.0117953 -0.00096063,0.0017126 -0.00194488,0.00351969 -0.00294882,0.00541732 -0.00100394,0.00189764 -0.00175984,0.00414173 -0.00226772,0.00674016 -0.00487795,0.0248189 -0.0181772,0.0436417 -0.0398976,0.0564606 -0.0192441,0.0114567 -0.0425748,0.0140354 -0.0699843,0.00774409 -0.0325276,-0.0074685 -0.0582126,-0.0257559 -0.0770472,-0.0548622 -0.0171614,-0.0263976 -0.023378,-0.0516339 -0.0186457,-0.0757087 0.00269291,-0.0137126 0.0056063,-0.0221378 0.00874409,-0.0252874 0.00313386,-0.00315354 0.00862205,-0.00383465 0.0164528,-0.0020315 0.00301181,0.000688976 0.00717717,0.0143268 0.0125,0.0409094 0.00532677,0.0265827 0.0281654,0.0445039 0.0685236,0.0537756 0.0207835,0.00476772 0.0374134,0.00384252 0.0498898,-0.00277953 0.0124764,-0.00661811 0.0202756,-0.0178937 0.0234055,-0.0338228 0.00116535,-0.00592913 -0.000984252,-0.0126142 -0.00644488,-0.020063 -0.00296063,-0.00416535 -0.00731496,-0.00845276 -0.0130551,-0.0128701 -0.00172047,0.000767717 -0.00526772,0.00159843 -0.0106417,0.00249606 -0.00537008,0.000893701 -0.0112087,0.0013937 -0.0175236,0.00149213 -0.0063189,9.84252e-005 -0.0114685,-0.00011811 -0.0154567,-0.000645669 -0.00398819,-0.000531496 -0.00914173,-0.00152362 -0.0154685,-0.00297638 -0.00662598,-0.00151969 -0.0118386,-0.00745669 -0.015626,-0.017811 -0.0037874,-0.0103583 -0.00484646,-0.0197992 -0.00317323,-0.028315 0.00174803,-0.00888976 0.0057874,-0.0126102 0.0121063,-0.0111575 0.00129134,0.00145669 0.00412205,0.0030748 0.00849213,0.00485433 0.00437402,0.00177953 0.0134843,0.00425591 0.0273425,0.00743307 0.0120472,0.00276772 0.0242402,-0.000814961 0.0365827,-0.0107598 0.0123425,-0.00994094 0.0197087,-0.0210276 0.0221142,-0.033252 0.00174409,-0.00888976 -0.000212598,-0.0153425 -0.00587795,-0.0193465 -0.00566535,-0.00401575 -0.015878,-0.0077126 -0.0306339,-0.0111024 -0.0189764,-0.00435827 -0.0344173,0.000129921 -0.0463189,0.0134606 -0.0119094,0.0133346 -0.0190669,0.0197244 -0.0214764,0.0191693 -0.00662598,-0.00152362 -0.0112913,-0.00781496 -0.0139961,-0.0188898 -0.00270079,-0.0110787 -0.00281496,-0.0229134 -0.000338583,-0.0355039 0.00218504,-0.0111142 0.0111181,-0.0185472 0.0268031,-0.0222992 0.0156929,-0.00375591 0.0343819,-0.00314173 0.0560669,0.00183858 0.0171654,0.00394094 0.0323465,0.0147835 0.0455472,0.0325276 0.0151732,0.0205197 0.0205,0.0422598 0.0159843,0.0652244 -0.00261811,0.0133425 -0.00683071,0.0243701 -0.0126417,0.0331063 -0.00401969,0.00604331 -0.00916929,0.0114449 -0.0154567,0.0161929 0.00303543,0.00379921 0.0048189,0.00672441 0.00535827,0.00878346l0.00445669 0.0085748c0.00381102,-0.00338976 0.00856693,-0.00597244 0.0142717,-0.00775984 0.00570079,-0.0017874 0.0124685,-0.00177953 0.0202953,1.5748e-005 0.00693307,0.00159055 0.014622,0.00490551 0.0230787,0.00994488 0.0028622,0.00142913 0.00659843,0.00402756 0.0112126,0.00779921l-0.00674409 0.0559449zm-0.0670354 0.0795m0.188394 -0.192598l-0.0361772 -0.0102874c-0.00446457,-0.00126772 -0.00797244,-0.000311024 -0.0105354,0.00287795 -0.00255906,0.00318898 -0.0047126,0.00825591 -0.0064685,0.0152008 -0.00101181,0.00401969 -0.00227953,0.0109016 -0.00378346,0.0206614 -0.0015,0.00975591 -0.00285827,0.0170039 -0.00405906,0.0217598 -0.00332283,0.0131535 -0.00683858,0.0292913 -0.0105472,0.0484055 -0.00370866,0.0191181 -0.00657874,0.0326969 -0.0086063,0.0407362 -0.00646457,0.0255827 -0.013689,0.0440906 -0.0216811,0.0555276 -0.00992126,0.0140197 -0.0214291,0.0191654 -0.0345315,0.0154409 -0.0095315,-0.0027126 -0.0180276,-0.010122 -0.0255,-0.0222283 -0.0074685,-0.0121181 -0.0105591,-0.0207323 -0.00926772,-0.0258465 0.00872441,0.00209055 0.017315,0.000614173 0.0257638,-0.0044252 0.00845276,-0.00503937 0.0146181,-0.0152283 0.0184921,-0.0305827 0.00162992,-0.0140236 0.00405118,-0.0305709 0.00726772,-0.0496339 0.00322047,-0.0190591 0.00791732,-0.0408307 0.0140984,-0.0653189l0.011311 -0.0390827 -0.0477874 -0.0135906 0.0110748 -0.0438504 0.0540354 0.0153661c0.00335433,-0.00570472 0.00737402,-0.0102441 0.0120512,-0.0136102 0.00672441,-0.00514173 0.0132087,-0.00682283 0.0194606,-0.00504724 0.00566142,0.00161024 0.0105276,0.00602756 0.0146024,0.0132638 0.00407874,0.00722835 0.00850394,0.0146535 0.0132795,0.0222835l0.0285827 0.00812598 -0.0110748 0.0438543zm-0.0664291 0.225484m0.195264 -0.185677l-0.0358386 -0.0115276c-0.0044252,-0.0014252 -0.0079685,-0.000590551 -0.0106457,0.00250787 -0.00267323,0.00309055 -0.00500394,0.0080748 -0.00700394,0.0149449 -0.00115748,0.00397638 -0.00266142,0.0108031 -0.00450787,0.0204882 -0.00185039,0.00968898 -0.00345669,0.016878 -0.00482677,0.0215748 -0.00378346,0.0130236 -0.00787008,0.0290079 -0.012248,0.0479567 -0.00438189,0.0189488 -0.00773228,0.0324016 -0.0100433,0.0403583 -0.00735827,0.0253071 -0.0152402,0.0435315 -0.0236378,0.0546654 -0.0104173,0.0136535 -0.0221181,0.0183858 -0.0350945,0.0142126 -0.00943701,-0.00303937 -0.017685,-0.0107283 -0.0247362,-0.0230748 -0.00705118,-0.0123543 -0.00984252,-0.0210591 -0.00837008,-0.026122 0.00865748,0.00238976 0.0173031,0.00121654 0.025937,-0.00351969 0.0086378,-0.00473228 0.0151575,-0.014689 0.0195787,-0.029878 0.00211811,-0.0139449 0.00512205,-0.030374 0.00900787,-0.0492913 0.00388976,-0.0189094 0.00935433,-0.0404764 0.0163976,-0.0647008l0.0126811 -0.0386181 -0.0473386 -0.0152323 0.0126181 -0.0433819 0.0535315 0.0172165c0.00355512,-0.0055748 0.00773622,-0.00996457 0.0125354,-0.0131614 0.00690551,-0.00489764 0.0134567,-0.00635039 0.0196496,-0.00435827 0.0056063,0.00179921 0.0103228,0.00638189 0.0141457,0.0137441 0.00382677,0.00735827 0.008,0.0149252 0.0125079,0.0227047l0.028315 0.0091063 -0.0126142 0.0433858zm-0.0732992 0.229965m0.227244 -8.66142e-005c-0.00588189,-0.00664961 -0.0148701,-0.0147795 -0.0269528,-0.0243858 -0.0120827,-0.0096063 -0.021752,-0.0157795 -0.0290039,-0.0185276 -0.0156654,-0.00593701 -0.0278701,-0.00956299 -0.0366142,-0.0108661 -0.00874409,-0.00130315 -0.0166575,-0.00168898 -0.0237441,-0.00116142 -0.00563386,0.0123386 -0.0108504,0.0216142 -0.0156535,0.0278346 -0.00907087,0.0118346 -0.017815,0.0161575 -0.0262244,0.0129685 -0.0095748,-0.00362598 -0.0173661,-0.0142205 -0.0233858,-0.0317717 -0.00601575,-0.0175551 -0.00697244,-0.032189 -0.00287402,-0.0438976 0.00347638,-0.00993701 0.00993701,-0.0171339 0.019311,-0.021622 0.00603937,-0.00293701 0.0130748,-0.00449213 0.0209606,-0.00472047l0.0199291 -0.0569567c0.00521654,-0.0149016 0.0108228,-0.0262402 0.0168307,-0.0340118l-0.0513543 -0.0194646 0.0149055 -0.0425866 0.161449 0.0611929 -0.0149055 0.0425866 -0.0491732 -0.0186378c-0.00812598,-0.00307874 -0.0143898,-0.00324409 -0.0187992,-0.0005 -0.00441339,0.00275197 -0.00755512,0.0067874 -0.00941732,0.0121102l-0.0217913 0.0622835c0.00612992,0.000311024 0.0144409,0.00145276 0.0247795,0.00336614 0.0104134,0.00193307 0.0202244,0.00464961 0.0295827,0.00819685 0.00899213,0.00340945 0.0183268,0.00794882 0.0278622,0.0135748 0.0118425,0.00770079 0.0237598,0.0154331 0.0358937,0.023248l-0.0216102 0.061748zm-0.0827283 0.0565866m0.214406 -0.163594l-0.034563 -0.0151614c-0.00426772,-0.00187008 -0.0078937,-0.00141339 -0.0108937,0.00137402 -0.00298819,0.00278346 -0.00584252,0.00747638 -0.00855906,0.0140787 -0.0015748,0.0038189 -0.0037874,0.0104252 -0.00664961,0.0198307 -0.00285827,0.00940157 -0.00522047,0.0163583 -0.00708268,0.0208701 -0.00514173,0.0125039 -0.0108937,0.0279134 -0.0172559,0.0462323 -0.00636614,0.0183189 -0.0111181,0.0312992 -0.0142598,0.038937 -0.0100039,0.0243071 -0.0197795,0.0415394 -0.0293346,0.0517008 -0.0118307,0.012437 -0.0240079,0.0159055 -0.0365236,0.0104173 -0.0091063,-0.00399213 -0.0165276,-0.0124764 -0.0222756,-0.0254409 -0.00574016,-0.0129764 -0.00761811,-0.0218898 -0.00561417,-0.0267559 0.00838976,0.00327559 0.0171496,0.00301181 0.0262638,-0.000779528 0.00911811,-0.00379134 0.0166732,-0.0129764 0.0226772,-0.027563 0.00357874,-0.0135906 0.00830315,-0.0295591 0.0141654,-0.0478898 0.00586614,-0.0183346 0.0135827,-0.0391299 0.0231575,-0.0623976l0.0167126 -0.036937 -0.0456654 -0.0200236 0.0171496 -0.0416693 0.0516339 0.0226417c0.00413386,-0.00515748 0.00877165,-0.00906693 0.0138976,-0.0117323 0.00740945,-0.00413386 0.0140984,-0.00488976 0.0200709,-0.00227165 0.00540945,0.00237008 0.00963386,0.00740157 0.0126811,0.0150945 0.00305118,0.00768504 0.00641732,0.0156181 0.0101063,0.0237992l0.027311 0.0119724 -0.0171496 0.0416732zm-0.0970472 0.213421m0.29848 -0.118323l-0.210224 -0.100819 0.0186181 -0.0409961 0.210224 0.100819 -0.0186181 0.0409961zm-0.00412598 0.153398c-0.0267244,0.00548819 -0.0476378,0.00794094 -0.0627323,0.00735433 -0.0210748,-0.000948819 -0.0402992,-0.00559449 -0.0576772,-0.0139252 -0.0128937,-0.00618504 -0.022878,-0.0138858 -0.0299606,-0.0231063 -0.0070748,-0.00921654 -0.0129409,-0.0203504 -0.0175984,-0.0333976 -0.00502756,-0.0144803 -0.00753543,-0.0277441 -0.00752362,-0.0398071 4.72441e-005,-0.00912598 0.0013937,-0.0165945 0.0040315,-0.0224016l-0.0134567 -0.00645276c-0.00868504,-0.00416535 -0.0152402,-0.0141693 -0.0196496,-0.0300157 -0.00441339,-0.0158465 -0.00483071,-0.0276969 -0.00126378,-0.0355512 0.00232677,-0.00512598 0.00629134,-0.00634646 0.0118976,-0.00365354 0.00903937,0.00641339 0.0177677,0.0123701 0.0261969,0.0178661 0.0084252,0.0055 0.0179606,0.0107992 0.0286102,0.0159055 0.0185039,0.00887402 0.0364724,0.0147835 0.0539055,0.0177362 0.0155,0.00119685 0.0311417,0.00245669 0.0469213,0.00378346 0.00588583,0.00282283 0.0103898,0.0122638 0.0135118,0.0283189 0.00311811,0.0160551 0.00266142,0.0285236 -0.00137402,0.0374055 -0.0026378,0.00580709 -0.00648031,0.00750394 -0.0115236,0.00508661 -0.00112205,-0.00053937 -0.0060748,-0.00353937 -0.0148583,-0.00900394 -0.00878346,-0.00545669 -0.0176654,-0.0103386 -0.0266339,-0.0146417 -0.0120512,-0.00577953 -0.0259252,-0.00754331 -0.041626,-0.00529528 -0.0157008,0.00224803 -0.0249409,0.00644094 -0.0277362,0.0125945 -0.00325591,0.00717323 0.0117874,0.0187598 0.0451457,0.0347559 0.0159764,0.00766142 0.0317244,0.0109488 0.0472362,0.00985433 0.0155118,-0.00108661 0.0329567,-0.00717717 0.0523307,-0.0182677l0.00382677 0.0648583zm-0.0959882 0.0632677m0.228575 -0.143815l-0.0332165 -0.018063c-0.00410236,-0.00222835 -0.00776772,-0.00209055 -0.0110039,0.000417323 -0.00323622,0.00250394 -0.00649606,0.00692126 -0.00978346,0.0132362 -0.00190945,0.00365354 -0.00470472,0.0100236 -0.00838189,0.0191142 -0.0036811,0.00908661 -0.00664961,0.0157874 -0.00890157,0.0201142 -0.00623622,0.0119685 -0.0133346,0.0267677 -0.0212913,0.0444055 -0.00796457,0.0176417 -0.0138465,0.0301181 -0.0176575,0.0374291 -0.012122,0.0232717 -0.0234016,0.0395315 -0.0338346,0.0487874 -0.0129134,0.0113189 -0.0253858,0.0137126 -0.0374134,0.00717323 -0.00874803,-0.00475591 -0.0154252,-0.0138268 -0.0200315,-0.0272047 -0.0046063,-0.0133819 -0.00569685,-0.0223976 -0.00327165,-0.0270512 0.00809843,0.00397638 0.0168701,0.00447638 0.026311,0.00150394 0.00944488,-0.0029685 0.0177992,-0.0114331 0.0250709,-0.0253976 0.00476772,-0.013185 0.0108858,-0.0286339 0.0183465,-0.0463268 0.0074685,-0.0176929 0.017,-0.0376772 0.0286024,-0.0599488l0.0199331 -0.0352283 -0.0438819 -0.0238543 0.0207795 -0.0398898 0.049622 0.0269764c0.00458268,-0.00475984 0.00955512,-0.00824409 0.0149134,-0.0104488 0.00776378,-0.00345669 0.0145157,-0.00362598 0.0202559,-0.000503937 0.00519685,0.00282283 0.00898425,0.00818504 0.0113504,0.0160906 0.00237402,0.00789764 0.00505118,0.0160709 0.00801969,0.0245118l0.0262441 0.0142638 -0.0207795 0.0398937zm-0.120421 0.204709m0.100272 -0.26365l-0.023748 -0.0139724c0.00406299,-0.0197717 0.00576378,-0.0385354 0.00511417,-0.0563031 -0.000944882,-0.0292362 -0.00866535,-0.0481181 -0.0231575,-0.0566417 -0.00912205,-0.00536614 -0.0231693,-0.00711024 -0.0421339,-0.00523228 -0.00948425,0.000940945 -0.0166378,-7.87402e-006 -0.0214685,-0.00285433 -0.00509843,-0.00299606 -0.00718898,-0.0116102 -0.00626772,-0.0258465 0.00092126,-0.0142323 0.00378346,-0.0255827 0.00859055,-0.0340512 0.00259055,-0.00456299 0.0126181,-0.00583465 0.0300827,-0.00381496 0.0174724,0.00201969 0.0321102,0.00650394 0.0439173,0.0134488 0.0206614,0.0121575 0.0334803,0.0340394 0.0384528,0.0656378 0.0054685,0.0345039 0.00234252,0.0743819 -0.00938189,0.11963zm-0.0975079 0.269449m0.144575 0.0224724c-0.00684646,0.0120551 -0.0149331,0.0196772 -0.0242677,0.0228819 -0.0115984,0.00403543 -0.0245157,0.00187402 -0.0387362,-0.00649213 -0.015563,-0.00915748 -0.0248701,-0.0190866 -0.0279252,-0.0297913 -0.00305118,-0.0107008 -0.000787402,-0.0227323 0.00679528,-0.0360906 0.00720866,-0.0127008 0.0161732,-0.019815 0.0268819,-0.0213346 0.0107087,-0.00152756 0.0223661,0.0014252 0.0349803,0.00884646 0.013685,0.00805118 0.022437,0.0175433 0.026248,0.0284803 0.0038189,0.0109331 0.00249213,0.0220984 -0.00397638,0.0335zm-0.00190157 0.0567638m0.141969 0.0373386c-0.00809843,0.0112283 -0.0169724,0.0179409 -0.026626,0.0201378 -0.0120039,0.00279528 -0.0246654,-0.00069685 -0.0379882,-0.0104685 -0.0145748,-0.0106969 -0.0228228,-0.0215039 -0.024752,-0.0324291 -0.0019252,-0.0109173 0.00159843,-0.0226024 0.0105709,-0.0350433 0.0085315,-0.0118307 0.0182205,-0.0179488 0.0290709,-0.0183386 0.0108543,-0.000393701 0.0221811,0.00374803 0.0339921,0.0124134 0.0128228,0.00940551 0.020563,0.0197205 0.0232205,0.0309528 0.00266142,0.0112283 0.000169291,0.0221575 -0.00748819,0.0327756zm-0.0085 0.0586732m0.140752 0.0422126c-0.00849606,0.0109252 -0.0176102,0.017315 -0.0273465,0.0191732 -0.0121102,0.00237008 -0.0246575,-0.00155512 -0.0376457,-0.0117756 -0.0142126,-0.0111772 -0.0220866,-0.0222559 -0.0236339,-0.0332244 -0.00154331,-0.0109724 0.0023937,-0.0225118 0.0118071,-0.0346181 0.00894882,-0.0115118 0.0188583,-0.0172756 0.0297323,-0.0172874 0.0108701,-1.5748e-005 0.0220591,0.00450787 0.0335787,0.0135709 0.0125,0.00983858 0.0198819,0.0204016 0.0221496,0.0317047 0.00227559,0.0112992 -0.000610236,0.022122 -0.00864173,0.0324567z"/>
 </g>
</svg>
